<?xml version="1.0" encoding="utf-8"?>
<!-- Generator: Adobe Illustrator 16.0.0, SVG Export Plug-In . SVG Version: 6.00 Build 0)  -->
<!DOCTYPE svg PUBLIC "-//W3C//DTD SVG 1.1//EN" "http://www.w3.org/Graphics/SVG/1.1/DTD/svg11.dtd">
<svg version="1.1" id="Layer_1" xmlns="http://www.w3.org/2000/svg" xmlns:xlink="http://www.w3.org/1999/xlink" x="0px" y="0px"
	 width="677.2871094px" height="553.7216797px" viewBox="0 0 677.2871094 553.7216797"
	 style="enable-background:new 0 0 677.2871094 553.7216797;" xml:space="preserve">
<path style="fill-rule:evenodd;clip-rule:evenodd;" d="M659.3515625,457.5917969
	c-26.5087891-56.9199219-53.0253906-113.8525391-79.5410156-170.7744141
	c-147.2763672,3.6660156-219.0644531-18.0771484-276.4472656-108.2001953
	c-19.1206055-36.4975586-38.2485352-73.0019531-57.3759766-109.4995117
	c-8.0454102-20.5068359-10.6611328-48.3901367-27.3803711-59.9658203
	c-14.9404297-10.3427734-41.5424805-9.0786133-66.5073242-9.1245117
	c-14.7758789,3.0405273-29.5595703,6.0844727-44.3359375,9.1245117
	C61.4057617,24.5209961,17.5048828,58.2709961,2.1430664,104.3149414
	c-7.9663086,23.8720703,8.3105469,43.1000977,15.6479492,59.9624023
	c20.3642578,46.7939453,40.5561523,90.4155273,65.2001953,131.6640625
	c88.2006836,147.6445313,229.5249023,303.8808594,483.7792969,245.0771484
	c35.6396484-8.6894531,71.2949219-17.3769531,106.9277344-26.0810547
	C685.7089844,501.6347656,664.1230469,466.9082031,659.3515625,457.5917969z M478.0986328,328.5341797
	c7.3876953-1.7431641,14.7841797-3.4716797,22.171875-5.2158203c48.6865234-1.8720703,48.6728516,55.4042969,15.6474609,67.7792969
	c-14.8330078,5.015625-32.7109375-11.6611328-41.7275391-18.2480469
	C476.5908203,358.0449219,478.9492188,344.4121094,478.0986328,328.5341797z M467.6748047,363.7314453
	c-12.0332031,19.3632813-54.7041016,37.9121094-82.15625,40.4130859c-0.8720703-0.4423828-1.7441406-0.8710938-2.6083984-1.3144531
	c-15.7265625-51.9023438,19.7490234-64.5068359,40.4208984-89.9433594
	C449.453125,313.3154297,486.1933594,333.8935547,467.6748047,363.7314453z M343.7900391,434.1259766
	c-13.0390625-11.7324219-26.0869141-23.4648438-39.1191406-35.1962891c-0.4360352-12.6044922-0.871582-25.2089844-1.3076172-37.8125
	c7.659668-10.0888672,15.6191406-17.0058594,20.8632813-29.9814453
	c14.7773438,5.6582031,29.5595703,11.3037109,44.3359375,16.9482422c3.4794922,4.7724609,6.9599609,9.5605469,10.4326172,14.3476563
	C382.7958984,379.3222656,353.9365234,436.7978516,343.7900391,434.1259766z M416.8144531,305.0664063
	c0,0.4355469,0,0.875,0,1.3037109c-7.6308594,10.1894531-20.5214844,17.8203125-32.6035156,23.4648438
	c-45.1142578-4.5722656-53.5249023-36.0292969-61.2841797-79.5224609
	C360.2460938,262.2954102,377.6025391,295.0273438,416.8144531,305.0664063z M319.0112305,282.9013672
	c19.7709961,71.4560547-67.7294922,92.890625-71.7163086,32.5859375
	c10.4038086-14.3652344,22.3066406-27.1689453,23.4716797-50.8276367c7.8242188,1.2939453,15.6484375,2.6020508,23.472168,3.9086914
	c4.3447266-4.3515625,8.6884766-8.6884766,13.0400391-13.0400391
	C316.7319336,260.7163086,315.8095703,271.3261719,319.0112305,282.9013672z M199.043457,230.7636719
	c35.1899414,0.6352539,83.0913086,27.3164063,56.0751953,63.8710938
	c-36.0043945,48.71875-78.3540039-0.7441406-93.8876953-32.5898438
	C178.1010742,254.0498047,190.4189453,247.046875,199.043457,230.7636719z M124.71875,229.4560547
	c-14.4614258-29.1308594,15.5551758-56.4902344,15.6484375-91.2519531
	c16.7192383,29.0595703,6.9667969,37.8056641,56.0683594,36.5053711
	c4.5014648,29.2373047,0.1142578,49.2016602-13.0400391,66.4790039
	C158.6230469,247.6259766,145.9619141,235.6005859,124.71875,229.4560547z M309.8867188,235.9794922
	c0,1.7358398,0,3.472168,0,5.2089844c-5.2158203,3.043457-10.4321289,6.0874023-15.6479492,9.1240234
	c-22.1074219,11.9462891-72.2734375-60.7626953-75.6318359-79.5185547
	c4.7797852-11.2963867,9.5605469-22.59375,14.340332-33.8896484
	C263.9145508,154.8242188,293.1884766,203.8120117,309.8867188,235.9794922z M232.9472656,116.0473633
	c-1.4077148,15.6616211-8.7744141,21.8500977-13.0400391,33.8969727
	c-20.40625,12.5537109-42.3061523,7.1162109-62.5917969-1.3081055c-1.7358398-5.2158203-3.4726563-10.4321289-5.2158203-15.6411133
	c14.7758789-14.3398438,29.5600586-28.6870117,44.3359375-43.0200195
	C214.9697266,93.1186523,224.3017578,102.9716797,232.9472656,116.0473633z M15.1831055,112.1386719
	c-1.7998047-8.9599609,8.1669922-18.1630859,13.0400391-24.7724609
	C50.737793,56.8417969,86.1210938,37.5644531,128.6274414,27.4042969
	c12.6040039-1.7402344,25.215332-3.4765625,37.8193359-5.2158203c20.3427734,0.0527344,41.6923828,3.9511719,48.2446289,18.2490234
	c6.3378906,19.1196289-16.5839844,38.9052734-26.0800781,48.2299805
	c-41.3061523,40.6054688-102.5976563,57.1323242-169.5195313,33.8964844
	C17.7910156,119.0913086,16.484375,115.6113281,15.1831055,112.1386719z M42.5644531,152.5449219
	c29.4663086-0.0996094,58.9047852,0.0068359,87.3706055,1.3081055
	c-2.4794922,36.5546875-19.8061523,64.3422852-26.0800781,96.4594727c-1.3076172,0.8720703-2.6079102,1.7363281-3.9155273,2.6147461
	C71.2304688,251.3413086,42.7426758,185.3271484,42.5644531,152.5449219z M92.1157227,272.4770508
	c9.0307617-10.7182617,19.0913086-12.2402344,23.4716797-28.6811523
	c29.2314453,7.8808594,36.684082,33.0751953,50.859375,56.0546875
	c-0.9003906,19.1240234-10.6318359,33.0996094-26.0795898,37.8007813
	C122.1396484,324.4042969,94.0234375,300.8574219,92.1157227,272.4770508z M152.0996094,348.0839844
	c5.2158203-9.5605469,10.4321289-19.1210938,15.6479492-28.6816406c31.7099609,2.9873047,60.140625,14.1767578,71.7231445,37.8125
	c-0.171875,25.3085938-19.0063477,41.2851563-33.9038086,52.1318359
	C181.4023438,408.0039063,147.5981445,373.9199219,152.0996094,348.0839844z M215.9990234,414.5625
	c14.0976563-13.390625,27.8803711-35.2685547,32.5961914-57.3476563
	c13.9257813,6.7460938,26.9301758,10.2041016,45.6435547,6.5166016
	c3.6010742,66.7080078-11.1254883,65.5644531-66.5073242,75.6113281
	C220.5283203,433.9257813,217.3061523,425.8378906,215.9990234,414.5625z M321.6191406,484.9570313
	c-27.0805664,5.4726563-58.2973633-13.3183594-66.5004883-31.28125c-1.3071289-1.3007813-2.6079102-2.6152344-3.9150391-3.9160156
	c17.8417969-6.7871094,35.8041992-9.9453125,45.6430664-24.7646484
	c16.8481445,9.0029297,26.2514648,20.8349609,36.512207,36.4970703
	C332.6943359,473.1962891,328.6782227,479.7695313,321.6191406,484.9570313z M338.5742188,498.0048828
	c-1.3076172-0.8720703-2.6074219-1.7441406-3.9150391-2.6162109c-6.1733398-39.5273438,27.4150391-51.1601563,35.2109375-83.4267578
	c33.2041016,16.8476563,60.3203125,58.3623047,66.5009766,100.3759766
	C402.4521484,512.3085938,362.5537109,510.5087891,338.5742188,498.0048828z M454.6269531,484.9570313
	c-20.8496094-15.1484375-37.2197266-40.4697266-36.5117188-76.9111328
	c15.7470703-6.5166016,32.7890625-13.9326172,43.0351563-26.0654297
	c47.3291016,29.3095703,21.9570313,71.0947266-2.6083984,102.9765625
	C457.2412109,484.9570313,455.9345703,484.9570313,454.6269531,484.9570313z M455.9345703,521.4550781
	c9.5605469-17.8066406,19.1201172-35.6259766,28.6875-53.4462891
	c24.0292969,10.1181641,51.2597656,28.2089844,69.1083984,45.6289063
	C527.5224609,521.640625,491.5742188,521.9550781,455.9345703,521.4550781z M556.3388672,479.7412109
	c-22.5712891-8.3173828-37.2265625-23.2363281-58.6767578-29.9814453c-5.4453125-11.5751953-0.9638672-28.6660156,0-41.7138672
	c20.1279297-2.5146484,32.6035156-7.5302734,41.7285156-20.8496094c4.34375,0,8.6953125,0,13.0400391,0
	c7.0302734,26.4228516,13.0322266,59.6201172,6.515625,89.9443359
	C558.0742188,478.0117188,557.2099609,478.8837891,556.3388672,479.7412109z M570.6865234,521.4550781
	c2.8857422-13.6621094-2.2519531-16.5205078-9.1318359-23.4501953c3.0439453-15.2197266,6.0878906-30.4248047,9.1318359-45.6298828
	c19.9775391,14.1611328,26.4941406,44.515625,50.8515625,53.4453125c0.4365234,0.8720703,0.8720703,1.7304688,1.3066406,2.6015625
	C610.7998047,516.7109375,590.3632813,521.1259766,570.6865234,521.4550781z M564.1621094,314.1875
	c1.7363281-1.3007813,3.4804688-2.6015625,5.2167969-3.9023438c24.0078125,15.3486328,85.4208984,146.734375,84.7568359,187.7197266
	C591.9150391,498.7324219,539.7900391,376.4921875,564.1621094,314.1875z"/>
</svg>
