<?xml version="1.0" encoding="utf-8"?>
<!-- Generator: Adobe Illustrator 16.0.0, SVG Export Plug-In . SVG Version: 6.00 Build 0)  -->
<!DOCTYPE svg PUBLIC "-//W3C//DTD SVG 1.1//EN" "http://www.w3.org/Graphics/SVG/1.1/DTD/svg11.dtd">
<svg version="1.1" id="Layer_1" xmlns="http://www.w3.org/2000/svg" xmlns:xlink="http://www.w3.org/1999/xlink" x="0px" y="0px"
	 width="612px" height="792px" viewBox="0 0 612 792" style="enable-background:new 0 0 612 792;" xml:space="preserve">
<path style="fill-rule:evenodd;clip-rule:evenodd;" d="M533.3710938,404.5322266
	c-26.1894531-4.28125-52.3779297-8.5708008-78.5673828-12.8520508c-31.4169922-10.4643555-62.8515625-20.9375-94.2685547-31.4174805
	c-78.574707-34.2583008-134.6347656-114.9082031-145.6987305-215.6176758c-2.8603516,0-5.7133789,0-8.574707,0
	c-68.0791016,14.753418-136.1806641,29.5078125-204.2607422,44.2617188
	c-9.6738281,63.9072266,35.7382813,151.6079102,61.4228516,194.2109375
	c25.1435547,41.7094727,50.0097656,86.0805664,87.1337891,115.659668
	c101.190918,80.6328125,284.8427734,139.0693359,451.3769531,151.3730469
	C631.9980469,576.2871094,586.1875,425.8056641,533.3710938,404.5322266z M430.5244141,421.6650391
	c79.4042969-1.1347656,82.9501953,22.3623047,58.5615234,78.5439453
	C436.9580078,539.7587891,427.7226563,466.0908203,430.5244141,421.6650391z M417.6728516,413.1025391
	c3.3808594,29.8837891-38.5722656,48.0966797-57.1376953,61.4033203c-6.6679688-1.9023438-13.3369141-3.8125-20.0048828-5.7138672
	c0.7275391-24.4755859-0.3603516-47.3232422-8.5625-65.6855469c4.7578125-4.2802734,9.5166016-8.5698242,14.2753906-12.8505859
	C373.2304688,395.8046875,384.3925781,413.1494141,417.6728516,413.1025391z M276.2548828,341.7045898
	c13.9672852,18.784668,38.9511719,28.1381836,62.8505859,37.1230469c0,0.4775391,0,0.9550781,0,1.4331055
	c-21.7822266,16.3422852-38.4111328,37.875-77.1352539,37.1298828c-20.3066406-20.8730469-1.1577148-67.1464844,0-95.6757813
	C269.1083984,327.4750977,270.7167969,334.2456055,276.2548828,341.7045898z M294.8242188,523.0566406
	c-33.5390625-1.9267578-35.7773438-36.3808594-34.2822266-72.8300781
	c17.1416016-9.0410156,34.2856445-18.0800781,51.421875-27.1289063c3.8095703,0,7.6210938,0,11.4248047,0
	C335.5048828,466.7021484,330.2675781,506.5966797,294.8242188,523.0566406z M247.6860352,300.2924805
	c0.9550781,0,1.90625,0,2.8574219,0c11.7163086,26.9638672-3.0375977,61.9033203-12.8554688,81.4008789
	c-32.4003906,0.2421875-58.9492188-1.2524414-78.5644531-12.8603516
	c1.9604492-24.1386719,14.8408203-30.9477539,21.4262695-48.5507813
	C206.9228516,310.2172852,228.3339844,329.5263672,247.6860352,300.2924805z M239.1191406,287.4404297
	c-32.2509766,18.9882813-46.3701172-11.7875977-61.421875-8.5708008c-0.480957,0-0.9550781,0-1.4277344,0
	c-17.9365234,10.7543945,2.0498047,58.0761719-41.4287109,54.2641602
	c-14.6635742-1.2822266-26.8706055-1.6591797-37.1391602-7.1381836c-0.9506836,0-1.9018555,0-2.8530273,0
	c0-15.230957,0-30.4619141,0-45.6933594c9.6621094-21.2661133,48.8330078-18.8232422,69.9926758-9.9951172
	c6.6606445-11.4189453,13.3300781-22.8549805,19.9941406-34.2744141
	c29.3354492,2.6923828,47.9047852,24.2475586,54.2836914,49.9829102
	C239.1191406,286.4853516,239.1191406,286.9624023,239.1191406,287.4404297z M213.4077148,193.1953125
	c7.6162109,8.5317383,12.3666992,24.8588867,14.284668,38.5561523c-8.097168-3.8115234-16.1904297-7.6162109-24.2866211-11.4277344
	C206.7392578,211.2836914,210.0742188,202.2358398,213.4077148,193.1953125z M196.2675781,167.4916992
	c1.9013672,0.4770508,3.8076172,0.9472656,5.7128906,1.4326172c0.9477539,0,1.902832,0,2.8530273,0
	c0.0942383,75.6948242-179.5942383,107.9882813-191.4052734,37.1235352
	C74.3657227,193.1953125,135.3261719,180.34375,196.2675781,167.4916992z M66.2763672,364.5517578
	c-20.6313477-27.871582-40-68.7363281-45.7089844-109.953125c7.7558594,1.5341797,41.7128906,3.4121094,48.5698242,7.1381836
	c26.3764648,14.3461914,3.9682617,81.8549805,0,101.390625C68.1816406,363.5966797,67.2314453,364.0742188,66.2763672,364.5517578z
	 M97.7016602,415.9589844c-9.043457-14.2841797-18.0917969-28.5605469-27.1362305-42.8447266
	c4.7592773-7.1298828,9.5219727-14.2758789,14.2802734-21.4140625c15.7128906,5.2363281,31.4296875,10.472168,47.1425781,15.7089844
	c1.4277344,1.9013672,2.8525391,3.8032227,4.2807617,5.7050781c-10.4726563,12.3818359-20.9487305,24.7568359-31.4248047,37.1318359
	C102.4643555,412.1474609,100.0844727,414.0488281,97.7016602,415.9589844z M120.5605469,415.9589844
	c28.4194336-19.4492188,54.1347656-17.9853516,98.5615234-15.7080078c0.015625,37.6708984-25.25,55.2109375-48.5664063,69.9716797
	C143.4116211,467.84375,122.8422852,443.0253906,120.5605469,415.9589844z M251.9750977,535.9082031
	c-32.4506836-5.6982422-48.1987305-25.8447266-72.8530273-37.1308594c-2.3798828-2.8505859-4.7587891-5.7060547-7.1425781-8.5634766
	c21.4262695-22.3701172,42.8569336-44.7470703,64.2792969-67.1162109
	C257.3676758,439.5185547,252.8950195,498.6435547,251.9750977,535.9082031z M387.671875,584.4589844
	c-47.6044922-10.9111328-85.0366211-31.7158203-127.1298828-42.8369141
	c-0.4775391-0.9550781-0.9511719-1.9023438-1.4243164-2.8574219c7.5605469-9.3603516,11.5249023-2.6298828,21.421875,4.2890625
	c31.0776367-2.5126953,51.2553711-25.265625,55.7084961-54.2646484c2.3876953,0,4.7675781,0,7.1464844,0
	c23.3857422,18.4570313,33.3583984,63.8613281,44.2773438,94.2451172
	C387.671875,583.5039063,387.671875,583.9892578,387.671875,584.4589844z M366.2490234,484.5009766
	c11.5917969-15.0439453,36.0986328-16.0458984,47.1347656-31.4111328c5.3603516,6.8408203,0.109375,31.7783203,5.7128906,42.8369141
	c7.6240234,15.0449219,24.3574219,19.6396484,32.8583984,32.84375
	c-10.9423828,17.359375-25.4228516,37.8037109-45.7099609,45.6923828
	C386.0361328,557.0019531,376.2529297,510.9873047,366.2490234,484.5009766z M520.5185547,610.1630859
	c-31.4248047-8.09375-62.8583984-16.1787109-94.2841797-24.2724609
	c14.7626953-19.0419922,29.5244141-38.0859375,44.2851563-57.1201172
	c30.4482422,8.78125,41.0605469,49.3173828,49.9990234,79.9667969
	C520.5185547,609.2148438,520.5185547,609.6855469,520.5185547,610.1630859z M600.5107422,627.3037109
	c-17.140625-2.3876953-34.2910156-4.7666016-51.4228516-7.1464844
	c-9.0488281-20.4599609-18.0957031-40.9345703-27.1445313-61.4023438
	c-16.890625-43.2128906-5.1806641-93.203125,5.7148438-132.7998047
	C576.5585938,453.9824219,607.3671875,544.5410156,600.5107422,627.3037109z"/>
</svg>
