<?xml version="1.0" encoding="utf-8"?>
<!-- Generator: Adobe Illustrator 16.0.0, SVG Export Plug-In . SVG Version: 6.00 Build 0)  -->
<!DOCTYPE svg PUBLIC "-//W3C//DTD SVG 1.1//EN" "http://www.w3.org/Graphics/SVG/1.1/DTD/svg11.dtd">
<svg version="1.1" id="Layer_1" xmlns="http://www.w3.org/2000/svg" xmlns:xlink="http://www.w3.org/1999/xlink" x="0px" y="0px"
	 width="775.0615234px" height="559.8139648px" viewBox="0 0 775.0615234 559.8139648"
	 style="enable-background:new 0 0 775.0615234 559.8139648;" xml:space="preserve">
<path style="fill-rule:evenodd;clip-rule:evenodd;" d="M773.8154297,201.0761719
	c-20.5996094-10.5537109-61.7441406,3.7363281-83.6914063,7.9135742c-48.25,6.7856445-96.5136719,13.5717773-144.765625,20.3510742
	c-15.640625,7.1328125-26.6640625,35.4350586-37.3242188,48.6162109
	c-17.1640625,21.2348633-50.2832031,29.9223633-79.1601563,39.5649414
	c-10.1835938,3.4091797-32.2929688,13.7841797-42.980957,10.1757813c-1.1313477-0.3710938-2.2617188-0.7431641-3.3925781-1.1279297
	c-2.1748047-14.1777344,4.8867188-24.0195313,7.9125977-36.1777344c6.5078125-26.0561523,11-64.800293,5.6601563-96.1015625
	C380.0932617,100.6586914,281.590332,2.4467773,172.1401367,3.222168
	c-20.0844727,11.675293-52.4365234,8.6074219-71.2475586,20.3510742
	C49.4912109,55.6557617-11.5874023,179.3183594,16.0703125,271.1713867
	c9.9921875,33.1884766,30.284668,56.8486328,42.9760742,88.1933594c-13.9960938,6.8671875-35.5493164,10.7470703-48.6308594,14.6875
	c-29.0493164,54.1875,41.3276367,152.2626953,55.4165039,184.2998047
	c15.440918,6.3847656,37.6445313-9.8525391,49.7631836-15.8378906
	c28.6459961-11.6748047,57.3046875-23.3632813,85.9506836-35.0380859
	c10.9306641-5.6533203,21.8662109-11.3164063,32.7973633-16.96875c12.0634766,3.3955078,24.1293945,6.7929688,36.1918945,10.1748047
	c30.4829102,7.203125,101.2993164,17.328125,137.9736328,11.3173828
	c185.8632813-30.4775391,268.5078125-37.6279297,334.765625-193.3369141
	C757.5419922,285.1362305,776.4365234,246.5317383,773.8154297,201.0761719z M529.5263672,270.043457
	c18.0332031,13.9785156,36.2265625,27.5361328,62.2070313,33.9199219
	c-6.5195313,12.6914063-11.328125,34.0214844-4.5253906,50.8779297c0,1.1279297,0,2.2558594,0,3.3955078
	C523.3349609,357.1958008,513.6376953,326.371582,529.5263672,270.043457z M509.1669922,301.7075195
	c2.6425781,15.4433594,5.2753906,30.8984375,7.9140625,46.3554688c-16.296875,6.8408203-35.5195313,14.1152344-55.4140625,7.90625
	c-3.0234375-4.2636719-4.96875-5.2919922-5.6503906-12.4316406
	C471.3974609,327.6723633,495.6513672,319.2329102,509.1669922,301.7075195z M423.2138672,344.6655273
	c6.0292969,1.5117188,12.0664063,3.0117188,18.0957031,4.5244141c5.2871094,4.8457031,5.1757813,13.8691406,11.3105469,18.0830078
	c9.1464844,6.2832031,28.1582031,3.9902344,33.9296875,13.5712891c0,0.3710938,0,0.7558594,0,1.1279297
	c4.8457031,15.3066406-16.640625,37.9003906-22.6191406,49.75
	C398.8974609,422.7485352,413.1630859,395.7670898,423.2138672,344.6655273z M387.0244141,344.6655273
	c15.1269531,0.1972656,22.8867188,4.4619141,23.7539063,19.2109375
	c-14.9609375,28.9414063-56.6821289,21.9384766-70.1240234-4.5117188
	C351.2021484,345.3227539,370.6079102,353.1196289,387.0244141,344.6655273z M353.0947266,398.9389648
	c-8.4399414,11.1669922-29.6708984,19.1992188-48.6308594,19.2119141
	c-13.8256836-18.2080078-17.3862305-42.8349609-10.1791992-71.2294922
	c10.9316406,1.1416016,21.8662109,2.2685547,32.7978516,3.3964844
	C332.6938477,376.7172852,340.3876953,382.4057617,353.0947266,398.9389648z M288.6298828,320.918457
	c3.9936523-8.8369141,11.2099609-20.9208984,7.9174805-32.7832031c1.5087891-1.5107422,3.0175781-3.0234375,4.5229492-4.5234375
	c28.487793,1.2275391,54.8354492,19.0244141,81.4301758,9.0488281
	C368.0917969,349.7104492,340.4072266,328.9506836,288.6298828,320.918457z M252.4384766,230.4750977
	c-0.3745117-0.3779297-0.7529297-0.7558594-1.1313477-1.1342773c-4.5380859-25.996582-6.1967773-34.1210938-18.0942383-49.7436523
	c6.0322266-6.7861328,12.0654297-13.5722656,18.0942383-20.3510742
	C294.2285156,169.3842773,282.8022461,215.3540039,252.4384766,230.4750977z M290.8916016,185.2485352
	c28.6621094-0.5756836,45.1210938,7.1455078,54.2866211,26.003418c-14.9873047,16.1860352-41.8735352,18.28125-66.7270508,12.4375
	C284.0776367,212.125,290.7495117,201.8813477,290.8916016,185.2485352z M225.2954102,163.7700195
	c-10.3149414,1.8774414-25.0546875-12.184082-36.1904297-15.8330078c4.418457-32.3676758,17.949707-33.4458008,38.453125-48.6171875
	c1.1303711,0,2.2617188,0,3.3916016,0C246.4682617,114.081543,248.8569336,156.7421875,225.2954102,163.7700195z
	 M243.3911133,237.2548828c-5.2763672,17.7104492-10.5537109,35.4287109-15.8330078,53.137207
	c-0.753418,0.3847656-1.5068359,0.7539063-2.2626953,1.1396484
	c-32.9433594-25.1508789-75.1079102-61.5522461-64.4614258-118.7207031
	c3.3901367-1.8833008,6.7827148-3.7675781,10.175293-5.6513672
	C205.9506836,168.1074219,246.2207031,200.0410156,243.3911133,237.2548828z M173.2705078,150.1982422
	c-4.8984375,2.2617188-9.7998047,4.5229492-14.7021484,6.7856445c-7.3242188-7.2753906-12.1303711-11.0991211-21.4853516-16.9614258
	c-10.0083008,1.3818359-14.6923828,5.6269531-22.6186523,9.0478516c-1.1308594-6.0297852-2.2626953-12.0595703-3.3935547-18.0888672
	c-2.6396484-2.6401367-5.2792969-5.2802734-7.9189453-7.9140625c12.8466797-7.7402344,25.4785156-14.9599609,33.9311523-27.137207
	C162.8999023,98.2236328,174.190918,121.078125,173.2705078,150.1982422z M125.7734375,154.7211914
	c32.8911133,1.9907227,18.4243164,37.809082,18.0932617,66.7060547c-16.9619141-4.9018555-33.9301758-9.7973633-50.894043-14.699707
	C76.0483398,172.9594727,111.1396484,167.8969727,125.7734375,154.7211914z M124.6420898,234.9926758
	c0.3759766,0.7558594,0.753418,1.512207,1.1313477,2.262207c-3.0180664,10.1762695-6.0322266,20.3510742-9.0473633,30.5268555
	c0,0.75,0,1.5117188,0,2.2617188c-16.2241211-3.6313477-39.8945313-2.7265625-54.2861328,2.2626953
	c-0.378418,0-0.7558594,0-1.1318359,0c2.637207-11.3100586,5.277832-22.6137695,7.9174805-33.9228516
	c2.6923828-4.6049805,7.2563477-5.9379883,11.3095703-9.0424805
	C95.2338867,231.2250977,109.9399414,233.1083984,124.6420898,234.9926758z M131.4291992,239.5161133
	c18.8232422,10.1953125,31.0839844,31.487793,41.8413086,49.7480469c-6.8100586,10.1875-12.015625,18.0830078-24.8808594,22.6064453
	c-9.421875,0-18.8476563,0-28.2705078,0C122.5043945,286.9702148,123.9643555,259.1118164,131.4291992,239.5161133z
	 M206.0698242,342.3979492c7.4326172,4.7851563,3.8535156,40.2314453,3.3925781,52.0175781
	c-22.4702148,5.7265625-48.3837891,17.1777344-55.4179688,38.4355469c-1.1313477,0.7548828-2.2587891,1.5117188-3.3896484,2.2548828
	c-5.5996094-2.8632813-11.7807617-5.6025391-14.7021484-11.3037109c-3.6064453-8.9355469,1.6240234-22.3339844,3.3891602-30.5263672
	C150.6796875,340.7993164,163.9169922,359.675293,206.0698242,342.3979492z M164.2241211,337.8862305
	c1.1303711-10.5595703,2.2646484-21.1074219,3.3925781-31.6669922c13.769043-3.2109375,27.1865234-6.234375,37.3212891-12.4306641
	c7.9169922,5.2792969,15.8364258,10.5458984,23.7504883,15.8261719c0.7563477,1.1269531,1.5087891,2.2558594,2.2612305,3.3964844
	C216.0566406,329.0981445,194.0693359,336.6967773,164.2241211,337.8862305z M215.1171875,348.0629883
	c6.4077148-7.5371094,12.8188477-15.0849609,19.2260742-22.6210938
	c14.7026367,4.5244141,29.4082031,9.0488281,44.1079102,13.5712891
	c-4.9384766,36.5761719-13.2001953,44.2470703-38.4526367,59.9257813
	C219.8696289,396.8325195,205.3505859,371.5727539,215.1171875,348.0629883z M241.1293945,294.9155273
	c0.7563477-4.5234375,1.5087891-9.046875,2.2617188-13.5605469c15.9169922,1.9101563,28.2983398,9.1474609,40.715332,15.8291016
	c0.7524414,0,1.5087891,0,2.2617188,0c0,3.7548828,0,7.5341797,0,11.3027344
	C267.309082,312.0083008,254.9394531,300.840332,241.1293945,294.9155273z M256.9624023,268.9160156
	c1.5102539-7.9199219,3.019043-15.8339844,4.5239258-23.7480469c1.7729492-2.9926758,2.1132813-2.496582,4.5244141-4.5170898
	c21.2026367,0.1547852,34.2509766,5.8554688,48.6313477,12.4370117c0.7524414,3.0117188,1.5087891,6.0239258,2.2617188,9.0424805
	c-8.3818359,8-20.5395508,7.9257813-26.012207,19.2246094C279.5854492,277.2011719,268.2724609,273.0551758,256.9624023,268.9160156
	z M384.7617188,271.1713867c-22.0361328,5.5766602-34.7211914-9.7050781-56.5483398-7.9077148
	c0.1494141-10.1816406-0.7802734-17.1591797-3.3925781-23.7475586c3.7705078-1.1328125,7.5419922-2.2612305,11.3100586-3.3959961
	c16.2075195,1.8911133,32.4223633,3.7744141,48.6308594,5.6586914
	C386.9550781,251.7124023,386.5039063,261.3554688,384.7617188,271.1713867z M384.7617188,206.7275391
	c0,3.7685547,0,7.5419922,0,11.3046875c-0.3740234,0-0.7529297,0-1.1303711,0
	c-14.0175781-7.1958008-29.625-15.7900391-32.7978516-33.9111328c3.3925781-3.7739258,6.7856445-7.5424805,10.1791992-11.3100586
	c1.8828125,0,3.7705078,0,5.6538086,0C376.706543,180.5883789,380.777832,192.722168,384.7617188,206.7275391z
	 M361.0126953,152.4599609c-2.7338867,12.3442383-10.5263672,17.6425781-16.965332,26.0029297
	c-15.4213867-2.2871094-41.6108398-4.8642578-52.0249023-13.5654297
	c9.9716797-20.7416992,25.9570313-36.0297852,26.0126953-65.5776367
	C336.5673828,113.2387695,343.5268555,137.9770508,361.0126953,152.4599609z M299.9399414,100.4477539
	c3.5634766,2.0517578,3.8198242,3.1669922,5.6547852,6.7861328c0.5512695,24.3227539-17.965332,43.2739258-41.8466797,39.574707
	c-0.3740234-7.5361328-0.7524414-15.078125-1.1303711-22.612793c-4.7001953-1.7299805-5.8500977-0.484375-11.3105469,2.2612305
	c-0.7890625-12.3193359,1.8969727-16.5024414,6.7866211-24.8754883c14.2036133,1.2709961,28.175293,5.1499023,36.190918-4.5229492
	C296.1689453,98.1918945,298.0561523,99.3198242,299.9399414,100.4477539z M286.3681641,65.4038086
	c0.7558594,1.5058594,1.5083008,3.0175781,2.2617188,4.5234375c-6.1103516,15.1269531-26.8959961,22.1796875-39.5839844,30.5205078
	c-3.3925781-5.6455078-6.7851563-11.3027344-10.1787109-16.9545898
	c3.7709961-10.9257813,7.5424805-21.8637695,11.3095703-32.7890625
	C262.0234375,59.1879883,268.1894531,61.0908203,286.3681641,65.4038086z M165.3544922,32.6152344
	c5.2807617-2.2626953,10.5561523-4.519043,15.8339844-6.7861328c66.0322266-2.4228516,81.6147461,47.0175781,26.012207,66.7050781
	c-1.5068359,0-3.0151367,0-4.5244141,0c-2.4848633-28.9960938-14.8574219-49.5390625-37.3217773-58.7851563
	C165.3544922,33.3652344,165.3544922,32.9926758,165.3544922,32.6152344z M121.2495117,34.8764648
	c42.9458008,7.2387695,104.9716797,55.5263672,62.2001953,105.1459961c0,0.7495117,0,1.5126953,0,2.2617188
	c-0.3745117,0-0.7524414,0-1.1308594,0c-5.2363281-17.5625-4.8803711-41.0986328-18.0947266-50.8779297
	c-24.2402344-17.9462891-46.2714844-9.2460938-46.3696289-53.1337891
	C118.984375,37.1386719,120.1191406,36.0048828,121.2495117,34.8764648z M108.8095703,36.0048828
	c8.5610352,21.9370117,0.0244141,37.0771484,12.4399414,55.4013672c-14.605957,17.6435547-40.7602539,5.5029297-59.9414063,0
	c-1.1313477-1.5053711-2.2617188-3.0175781-3.3925781-4.5234375
	C71.5893555,65.2734375,93.4125977,54.9609375,108.8095703,36.0048828z M51.1303711,108.3676758
	c23.7714844,2.8823242,43.6606445,21.8139648,54.2866211,38.440918
	c-8.1186523,13.887207-18.2226563,26.5234375-39.5849609,27.137207c-3.0175781-4.5249023-6.0327148-9.0483398-9.0473633-13.5717773
	c-1.5087891,0-3.0180664,0-4.5239258,0c-7.4365234,5.8500977-11.418457,10.8510742-23.75,12.4370117
	C32.4760742,147.453125,40.4003906,126.6928711,51.1303711,108.3676758z M39.8198242,280.2192383
	c-1.5087891,0-3.0180664,0-4.5239258,0c-6.4135742-9.6367188-16.6010742-75.1523438-7.9165039-90.4526367
	c2.128418-2.8203125,3.7250977-2.7207031,6.7856445-4.5180664c24.6088867,1.2036133,34.2460938,12.9707031,48.6323242,23.7412109
	c0,0.7563477,0,1.5063477,0,2.262207c-6.0332031,5.6518555-12.0668945,11.3095703-18.0957031,16.9555664
	C51.2050781,251.4208984,63.9609375,263.8037109,39.8198242,280.2192383z M52.2607422,289.2641602
	c15.8305664-3.0126953,31.6669922-6.0371094,47.5004883-9.0449219c1.8837891,0,3.7685547,0,5.6557617,0
	c4.5917969,7.2851563,7.2089844,13.0351563,6.784668,26c-16.0126953,15.7275391-31.1582031,20.7714844-30.5351563,54.2734375
	c-0.3789063,0-0.7563477,0-1.1313477,0C65.8139648,349.8461914,44.1396484,317.0883789,52.2607422,289.2641602z
	 M106.5473633,525.559082c-55.6220703,34.3671875-86.2758789-81.28125-89.3461914-127.7597656
	c6.7822266-3.3837891,13.5717773-6.7792969,20.3574219-10.1757813
	c28.0136719-0.1240234,29.1508789,10.5722656,40.7143555,26.0029297c7.371582,9.8408203,24.902832,10.6220703,31.6669922,20.3525391
	C124.9399414,455.5805664,111.7714844,504.0170898,106.5473633,525.559082z M117.8544922,409.1147461
	C97.1499023,394.043457,86.0439453,365.3266602,95.237793,333.362793c6.4072266-2.640625,12.8154297-5.2802734,19.2265625-7.9208984
	c12.059082,0.3847656,24.1274414,0.7558594,36.1904297,1.1279297c4.1035156,36.5507813-31.6450195,42.5253906-31.6704102,82.5449219
	C118.6103516,409.1147461,118.2319336,409.1147461,117.8544922,409.1147461z M132.5561523,501.8110352
	c-13.0478516-7.4355469-7.4428711-38.4960938-6.7827148-56.5302734
	c22.3901367,11.7998047,37.402832,31.6064453,64.4624023,38.4462891c0.378418,0.7568359,0.7563477,1.5117188,1.1308594,2.2568359
	C181.1445313,491.871582,148.7246094,515.9399414,132.5561523,501.8110352z M221.9033203,463.3774414
	c-1.1313477,1.5117188-2.262207,3.0107422-3.3935547,4.5234375c-15.5170898-4.671875-62.8662109-25.4082031-61.0717773-30.5263672
	c5.6762695-16.1875,34.3193359-20.9960938,48.6318359-29.3994141c7.8823242,0.1484375,10.6523438,1.5371094,15.8334961,3.3964844
	C229.6557617,423.8901367,230.5664063,449.6430664,221.9033203,463.3774414z M263.7480469,479.2036133
	c-9.421875-1.8837891-18.8486328-3.7666016-28.2734375-5.6513672c-3.9907227-4.4492188,1.9394531-53.2324219,4.5239258-62.1806641
	c5.9545898-1.6611328,40.4204102-6.4208984,42.9765625-7.9199219c7.4580078,6.4941406,10.956543,20.5869141,15.8334961,29.3994141
	C287.1240234,448.3061523,275.4360352,463.7612305,263.7480469,479.2036133z M375.7143555,481.4594727
	c-34.6787109,6.234375-62.2460938-7.6210938-93.8706055-9.0361328c0-0.3828125,0-0.7539063,0-1.1269531
	c12.5551758-20.9951172,25.6713867-26.6708984,46.3696289-39.5742188c24.875,2.9375,39.5908203,28.3203125,47.5009766,48.6210938
	C375.7143555,480.715332,375.7143555,481.0883789,375.7143555,481.4594727z M384.7617188,457.7250977
	c-22.581543-13.7578125-24.7167969-27.6386719-18.0952148-56.5292969
	c10.4545898-5.4794922,27.4907227-5.28125,36.1918945-12.4443359c8.4765625,20.8974609,1.4121094,23.6484375,14.6992188,41.8427734
	c-6.0234375,11.3037109-12.0605469,22.6074219-18.0957031,33.9111328
	C394.3310547,465.012207,389.4716797,460.5883789,384.7617188,457.7250977z M470.7158203,487.1245117
	c-20.734375,1.8837891-41.4726563,3.7675781-62.2070313,5.6513672
	c-15.4550781-21.2929688,3.8300781-42.6230469,14.7050781-57.6699219
	c10.9316406,3.3955078,21.8710938,6.7919922,32.8027344,10.1748047c7.6894531,6.1611328,10.8710938,31.4697266,14.6992188,40.703125
	C470.7158203,486.3686523,470.7158203,486.7397461,470.7158203,487.1245117z M520.4775391,479.2036133
	c-11.3105469,1.8847656-22.6191406,3.7695313-33.9277344,5.6533203c-2.640625-4.5136719-5.2734375-9.0361328-7.9140625-13.5605469
	c-20.5625-36.7246094,3.5878906-50.9023438,15.8261719-83.6728516c8.7578125,23.140625,0.3046875,39.9716797,28.2773438,48.6220703
	C521.9892578,450.5620117,521.2353516,464.8891602,520.4775391,479.2036133z M586.0732422,445.2807617
	c-10.9238281,13.1875-33.0351563,20.0185547-57.6757813,19.2246094c1.1289063-9.4199219,2.2558594-18.8398438,3.390625-28.2597656
	c12.7109375-3.6425781,22.3027344-9.1962891,38.453125-9.046875c5.2792969,4.8945313,10.5585938,9.8027344,15.8320313,14.6992188
	C586.0732422,443.0249023,586.0732422,444.1538086,586.0732422,445.2807617z M572.5009766,410.2426758
	c-18.0761719-2.6396484-27.5136719,15.8164063-47.4980469,10.1757813c-34.9199219-9.8525391-12.4316406-45.7841797,0-62.1816406
	c14.9101563,6.59375,35.6328125,8.9726563,41.8417969,24.8623047c6.9472656,2.2197266,9.6621094-3.5566406,16.9667969-5.6494141
	c31.6679688-9.0742188,48.859375,27.0048828,48.6347656,53.1445313
	C595.3193359,453.4116211,597.5009766,413.8999023,572.5009766,410.2426758z M590.5986328,317.5219727
	c6.3769531-4.4990234,14.4140625-5.3662109,22.6171875-9.0351563c14.1621094-0.1347656,27.4746094,0.5205078,37.3261719,3.3837891
	c13.7832031,19.3476563,8.6132813,54.1757813-15.8398438,58.7988281
	C608.7001953,375.5776367,590.3388672,340.7612305,590.5986328,317.5219727z M698.0361328,369.5405273
	c-11.5371094,18.5908203-23.6347656,35.4228516-44.1035156,45.2265625
	c-3.390625-10.5595703-6.7871094-21.1064453-10.1816406-31.6679688
	c7.5410156-7.1513672,15.0839844-14.3144531,22.6191406-21.4794922c10.5585938,2.2568359,21.1132813,4.5244141,31.6660156,6.7802734
	C698.0361328,368.784668,698.0361328,369.1577148,698.0361328,369.5405273z M713.8759766,344.6655273
	c-19.6425781,4.3505859-30.3144531-5.1679688-44.109375-12.4443359c-2.640625-9.0341797-5.2792969-18.0820313-7.9199219-27.1308594
	c33.3144531-8.4892578,77.2890625-29.3085938,88.2226563-59.9223633
	C756.8037109,264.3916016,721.8330078,329.6801758,713.8759766,344.6655273z M753.4521484,224.8173828
	c-14.421875,34.6352539-75.765625,58.3608398-119.8769531,65.574707
	c-31.9707031,5.2294922-85.0625-10.5200195-91.6054688-31.6513672c0-0.378418,0-0.7558594,0-1.1347656
	c11.0058594-6.8789063,27.6328125-5.9306641,42.9707031-9.0410156
	c50.1347656-8.2919922,100.2871094-16.5839844,150.421875-24.8754883c6.0292969,0,12.0644531,0,18.0898438,0
	C753.4521484,224.0615234,753.4521484,224.4458008,753.4521484,224.8173828z"/>
</svg>
