<?xml version="1.0" encoding="utf-8"?>
<!-- Generator: Adobe Illustrator 16.0.0, SVG Export Plug-In . SVG Version: 6.00 Build 0)  -->
<!DOCTYPE svg PUBLIC "-//W3C//DTD SVG 1.1//EN" "http://www.w3.org/Graphics/SVG/1.1/DTD/svg11.dtd">
<svg version="1.1" id="Layer_1" xmlns="http://www.w3.org/2000/svg" xmlns:xlink="http://www.w3.org/1999/xlink" x="0px" y="0px"
	 width="500.4677734px" height="556.3725586px" viewBox="0 0 500.4677734 556.3725586"
	 style="enable-background:new 0 0 500.4677734 556.3725586;" xml:space="preserve">
<path style="fill-rule:evenodd;clip-rule:evenodd;" d="M450.8271484,417.043457
	C397.7539063,332.659668,318.1875,278.0703125,261.8105469,198.5014648
	c-20.5053711-28.9423828-36.8676758-62.8208008-50.59375-98.2988281
	c-5.0888672-18.765625-10.184082-37.5371094-15.2739258-56.3051758C181.9345703,24.0463867,122.2709961,0.4580078,88.0668945,0
	C64.6118164,13.5742188,28.4199219,7.7495117,12.6538086,28.6289063
	c-37.4477539,49.5830078,18.1142578,141.9418945,39.137207,169.8725586
	c29.8422852,39.6367188,65.793457,72.5805664,96.4199219,110.7021484
	c16.8647461,19.4072266,33.7285156,38.8134766,50.5932617,58.2089844
	c50.0541992,50.0390625,110.7319336,94.1455078,115.5131836,188.9599609
	c34.4609375-8.328125,62.7958984-22.3457031,99.28125-28.6337891c26.2324219-4.5097656,63.2041016,4.9277344,84.9589844-4.7705078
	c0.6386719,0,1.2714844,0,1.9101563,0C499.8076172,479.6147461,468.9404297,445.8442383,450.8271484,417.043457z
	 M454.6464844,438.9916992c-11.2744141,17.2832031-46.1005859,23.3515625-55.3691406,0
	c-8.1396484-19.7509766,20.7236328-28.6650391,28.6386719-37.2216797
	C441.46875,406.7700195,448.8242188,426.1870117,454.6464844,438.9916992z M387.8212891,351.1977539
	c15.84375,11.3505859,24.6689453,27.3886719,37.2275391,41.9824219
	c-18.0302734,22.8583984-45.1210938,24.5019531-26.7236328,63.9423828c0.9521484,0.9511719,1.9082031,1.9140625,2.8613281,2.8662109
	c-17.4658203,0.7011719-45.8847656,16.5722656-60.1396484-0.9521484
	c-13.9453125-32.1591797,22.7431641-35.265625,26.7294922-56.3046875
	c-12.2822266-15.8496094-2.5371094-39.7021484,8.5888672-51.5341797
	C381.4501953,352.5581055,383.2597656,353.0708008,387.8212891,351.1977539z M336.2705078,404.6352539
	c-6.4863281,1.2246094-12.25-6.1816406-22.9101563-6.6845703c-1.8046875-8.5888672-0.8574219-20.6191406,2.8662109-26.71875
	c2.9716797-4.9804688,9.75-6.2460938,14.3173828-9.5410156c6.9990234,0.3134766,14.0019531,0.6376953,21.0009766,0.9511719
	c1.5908203,0.9628906,3.1855469,1.9150391,4.7753906,2.8671875c2.5742188,11.0683594-0.0361328,20.8710938-1.9082031,31.4892578
	C348.3652344,399.5415039,342.3173828,402.0942383,336.2705078,404.6352539z M371.5947266,333.0571289
	c0,0.9511719,0,1.9140625,0,2.8662109c-25.0507813,16.4248047-41.3808594,19.9189453-61.0957031-5.7226563
	c1.9931641-17.1464844,11.2929688-26.0283203,19.0917969-37.2226563
	C348.9667969,301.6918945,355.8554688,321.0258789,371.5947266,333.0571289z M320.0449219,285.340332
	c-3.6298828,5.9013672-8.0761719,14.8564453-14.3222656,18.1416016
	c-15.4414063,5.8789063-34.2929688-12.8583984-42.9560547-19.0927734
	c3.6201172-11.9477539,14.0927734-22.2319336,21.0019531-31.4926758c1.5898438,0,3.1806641,0,4.7714844,0
	C299.0380859,263.7114258,309.5410156,274.5288086,320.0449219,285.340332z M283.7685547,241.4462891
	c-14.8925781,9.4760742-38.6293945,22.9946289-62.0527344,12.4052734
	c-4.4365234-18.8862305,7.6362305-32.1884766,7.6362305-57.2597656
	C252.0595703,205.9472656,271.2460938,221.8725586,283.7685547,241.4462891z M205.4892578,111.6552734
	c11.2255859,6.7407227,35.0830078,64.7607422,41.046875,80.1655273c-4.4521484-2.2285156-8.9082031-4.4536133-13.3652344-6.6821289
	c-0.6328125-5.0898438-1.2709961-10.1791992-1.909668-15.2685547c-8.8183594-14.3984375-27.9848633,1.7128906-37.2275391,3.8183594
	c-12.0463867,2.7407227-20.1235352-5.7827148-29.5961914-0.9550781c-9.6040039,4.5454102-7.972168,15.0605469-10.4985352,26.7197266
	c-5.7280273,2.2285156-11.4555664,4.4536133-17.1826172,6.6821289
	c12.1137695-19.137207,23.1616211-31.1157227,18.1342773-63.9389648
	C175.5,139.8813477,195.3833008,125.0859375,205.4892578,111.6552734z M83.2963867,14.3144531
	c49.8759766,0.2724609,66.8193359,26.0893555,102.1435547,37.2177734c0.637207,0.9545898,1.2758789,1.909668,1.9082031,2.8637695
	C139.4023438,77.762207,49.3588867,84.7431641,20.2910156,39.1274414
	C38.3681641,28.0693359,64.1518555,25.3701172,83.2963867,14.3144531z M138.6645508,98.2958984
	c-0.2978516,18.9462891-23.7944336,41.5771484-42.0029297,31.4926758
	c-6.3613281-6.0102539-0.9575195-26.4951172,1.9082031-33.4018555c6.6806641-2.2260742,13.3652344-4.4536133,20.0449219-6.6796875
	c7.590332,0.0263672,11.0737305,1.2949219,16.2314453,2.8608398
	C136.1176758,94.4775391,137.3935547,96.3867188,138.6645508,98.2958984z M18.3818359,70.6196289
	c24.4169922,4.5898438,36.1132813,24.9589844,64.9145508,15.2685547c4.3100586,1.7602539,5.2358398,2.2099609,7.637207,5.7280273
	c-9.4785156,24.1689453-22.0532227,43.4970703-56.3266602,42.9428711
	C23.5239258,123.699707,15.2006836,91.2421875,18.3818359,70.6196289z M87.1152344,133.6069336
	c-3.4995117,0.9521484-7.0048828,1.90625-10.503418,2.8613281c-2.5429688,0-5.090332,0-7.637207,0
	c0-0.3168945,0-0.6362305,0-0.9550781c6.7739258-8.9443359,14.4101563-15.3911133,19.0922852-26.7211914
	C91.7177734,109.6835938,87.2299805,125.5620117,87.1152344,133.6069336z M77.5683594,199.453125
	c-17.3666992-10.9379883-30.1401367-28.4331055-38.1850586-48.6679688c0-0.9541016,0-1.9091797,0-2.8642578
	c20.9077148-0.0913086,41.0102539-3.6694336,56.3208008-2.8637695
	C95.840332,166.7099609,90.5986328,190.6176758,77.5683594,199.453125z M142.4833984,142.1962891
	c23.0888672,36.3642578-5.6337891,63.5805664-49.640625,62.0297852
	C92.4819336,169.2915039,105.7993164,134.2553711,142.4833984,142.1962891z M137.7080078,259.5761719
	c-1.590332,1.2739258-3.1801758,2.5473633-4.7705078,3.8183594c-13.5429688-11.3530273-29.1933594-16.2802734-34.3676758-36.2651367
	c2.2285156-2.2260742,4.4570313-4.4545898,6.6806641-6.6796875c16.2363281-2.9399414,37.9760742-1.0283203,47.730957-10.4985352
	c8.8198242,5.1445313,8.3066406,22.7099609,6.6855469,35.3110352
	C146.1083984,244.7104492,141.2695313,250.7836914,137.7080078,259.5761719z M185.4399414,318.7456055
	c-21.7558594-7.5644531-39.6977539-24.8886719-42.0048828-51.534668
	c7.956543-6.3608398,15.9125977-12.7246094,23.8691406-19.0849609c12.652832-17.4550781-3.3793945-43.8237305-6.6855469-61.078125
	c0.3193359-0.9541016,0.6386719-1.9091797,0.9575195-2.8632813c16.7177734-4.5385742,39.6235352-0.0683594,52.5024414-7.6347656
	c2.8657227,0,5.7270508,0,8.59375,0c5.2519531,15.8076172-0.6274414,36.4169922-3.8183594,50.5795898
	c-11.1992188,6.9331055-27.8383789,12.3896484-31.5058594,26.722168
	C182.1591797,274.1333008,199.9233398,301.9125977,185.4399414,318.7456055z M201.6708984,265.3041992
	c16.1835938,2.5,39.0581055,10.9116211,48.6835938,20.9892578c6.3291016,29.6269531-26.5786133,50.2998047-51.550293,40.0888672
	C189.5766602,311.1186523,197.6430664,280.4604492,201.6708984,265.3041992z M246.5361328,395.0952148
	c-0.9521484,0.6269531-1.909668,1.265625-2.8623047,1.9033203c-13.6835938-13.9980469-27.3666992-27.9951172-41.0512695-41.9824219
	c0-1.9140625,0-3.8183594,0-5.7333984c4.4570313-1.5898438,8.9130859-3.1796875,13.3652344-4.7705078
	c9.2265625,1.2763672,18.4594727,2.5419922,27.6860352,3.8193359
	C247.5761719,362.0668945,251.3789063,379.2875977,246.5361328,395.0952148z M255.1298828,407.5024414
	c-1.9091797-1.9150391-3.8183594-3.8183594-5.7275391-5.7324219c7.5683594-21.0917969,10.7080078-52.2666016-3.8183594-66.7988281
	c3.1801758-5.7333984,6.3603516-11.4550781,9.5458984-17.1777344c3.4990234-1.2763672,6.9990234-2.5527344,10.4980469-3.8193359
	c14.0039063,0.953125,28.0058594,1.9150391,42.0039063,2.8564453c0,0.3242188,0,0.6494141,0,0.9628906
	c-3.5195313,8.4736328-4.4980469,18.7783203-0.9511719,27.6708984c0,0.9521484,0,1.9140625,0,2.8671875
	c-36.7685547-1.0048828-51.5244141,22.9736328-50.5996094,59.1708984
	C255.7636719,407.5024414,255.4492188,407.5024414,255.1298828,407.5024414z M261.8105469,414.1772461
	c-5.921875-33.2265625,8.640625-39.7861328,28.6386719-54.390625c6.0458984,0.3134766,12.0927734,0.6269531,18.140625,0.9521484
	c2.4160156,7.3759766,3.0175781,31.8876953-2.8671875,37.2119141c-7.9560547,1.2763672-15.9121094,2.5527344-23.8623047,3.8193359
	c-8.0195313,2.5-13.0146484,8.1484375-19.09375,12.4072266
	C262.4482422,414.1772461,262.1289063,414.1772461,261.8105469,414.1772461z M288.5400391,437.0776367
	c-4.9960938-7.3125-13.9775391-11.2470703-19.09375-19.0830078c9.8398438-6.453125,29.1210938-2.9707031,41.0527344-8.5888672
	c9.4619141,0.7958984,16.8896484,5.3359375,20.0449219,12.4082031
	c10.4033203,22.796875-14.5322266,37.0136719-33.4101563,36.2597656
	C294.2675781,451.0756836,291.4052734,444.0766602,288.5400391,437.0776367z M317.1787109,541.1098633
	c-4.7705078-21.9482422-9.546875-43.9082031-14.3173828-65.8574219
	c20.1708984-19.6572266,50.4462891,8.1806641,69.6855469,4.7705078c3.1796875-2.8564453,6.3662109-5.7216797,9.5458984-8.5791016
	c5.7285156,0.3134766,11.4560547,0.6289063,17.1845703,0.9521484c20.0859375,0.7958984,43.9853516-3.5458984,52.5068359-15.2734375
	c24.5957031,2.4580078,31.7451172,31.7294922,39.1376953,51.5341797
	C423.6621094,510.434082,366.9296875,522.4233398,317.1787109,541.1098633z"/>
</svg>
