<?xml version="1.0" encoding="utf-8"?>
<!-- Generator: Adobe Illustrator 16.0.0, SVG Export Plug-In . SVG Version: 6.00 Build 0)  -->
<!DOCTYPE svg PUBLIC "-//W3C//DTD SVG 1.1//EN" "http://www.w3.org/Graphics/SVG/1.1/DTD/svg11.dtd">
<svg version="1.1" id="Layer_1" xmlns="http://www.w3.org/2000/svg" xmlns:xlink="http://www.w3.org/1999/xlink" x="0px" y="0px"
	 width="738.1748047px" height="556.0654297px" viewBox="0 0 738.1748047 556.0654297"
	 style="enable-background:new 0 0 738.1748047 556.0654297;" xml:space="preserve">
<path style="fill-rule:evenodd;clip-rule:evenodd;" d="M713.7695313,279.578125
	C656.8457031,131.8583984,516.4521484-2.8974609,310.2094727,0.0473633
	c-19.4267578,10.871582-53.9106445,4.2402344-76.3496094,10.9038086
	C174.6679688,28.5283203,114.015625,46.2285156,71.2456055,80.3388672
	c-21.8876953,17.453125-63.894043,65.5375977-70.4003906,96.1499023
	c-5.1914063,24.4365234,14.862793,36.9350586,23.7973633,48.5698242
	c34.0332031,44.3105469,73.909668,65.7060547,154.6816406,64.4296875
	c45.5273438-73.1220703,155.0332031-93.3720703,240.9501953-42.6230469
	c81.9375,48.4042969,129.1083984,147.3203125,126.9130859,278.5429688
	c38.7988281,51.9287109,113.6621094,27.8759766,157.6542969,0.9873047
	c7.7587891-4.7421875,20.2324219-8.2910156,23.796875-16.8535156c1.3261719-9.9101563,2.6474609-19.8203125,3.9667969-29.7363281
	C745.796875,412.3095703,733.9628906,331.9863281,713.7695313,279.578125z M711.7851563,341.0332031
	c1.3261719,6.6123047,2.640625,13.21875,3.9667969,19.8251953c1.8417969,44.9863281-9.8564453,32.21875-42.6396484,27.7519531
	c-0.1523438-11.84375-0.2167969-25.5683594,3.9667969-33.6962891c4.5136719-7.5087891,17.7880859-9.7851563,24.7919922-14.8759766
	C705.1796875,340.375,708.4814453,340.7011719,711.7851563,341.0332031z M537.2724609,174.5063477
	c2.28125,10.7524414,1.5537109,24.5869141,0.9882813,36.6762695c-9.2470703,9.3447266-34.0986328,10.4887695-52.5488281,9.9101563
	C485.2666016,179.737793,498.8486328,146.7231445,537.2724609,174.5063477z M469.8466797,152.6972656
	c-5.9277344-21.8251953-4.7705078-40.784668,4.9550781-57.4912109c12.8925781,0.6606445,25.7861328,1.3227539,38.6738281,1.9833984
	c4.7646484,13.1235352,1.3037109,32.9194336,3.9658203,47.5776367
	C493.4267578,148.7773438,491.0146484,162.7651367,469.8466797,152.6972656z M543.2216797,224.0673828
	c17.2929688-0.144043,28.7851563,1.6733398,39.6621094,5.9467773c1.765625,17.9589844-6.2099609,27.5078125-13.8818359,38.659668
	c-17.9833984,4.7949219-30.7841797-0.2880859-44.6171875-5.9467773
	C514.9042969,242.9663086,534.3271484,232.355957,543.2216797,224.0673828z M591.8105469,253.8056641
	c28.9365234,0.1850586,43.7480469,17.6928711,47.59375,42.6259766
	c-17.0644531,18.3974609-55.0917969,12.4414063-65.4472656-8.9208984
	C574.0117188,268.1743164,583.5849609,264.3085938,591.8105469,253.8056641z M606.6816406,323.1953125
	c2.3955078,7.8828125,2.6728516,15.7021484,1.9824219,25.7646484c-3.9658203,2.9765625-7.9316406,5.9541016-11.8984375,8.9208984
	c-3.6347656,3.640625-7.2695313,7.2695313-10.9101563,10.9101563
	c-8.9482422-12.7363281-26.5078125-19.5380859-33.7070313-32.7138672
	c4.6240234-8.5888672,9.2529297-17.1845703,13.8769531-25.7685547
	C582.6826172,312.2421875,593.1142578,319.1425781,606.6816406,323.1953125z M618.5800781,359.8691406
	c12.2958984,1.2714844,19.7167969,5.4121094,28.7578125,8.921875c13.1484375,17.1787109,2.7382813,38.3134766-5.9541016,55.5048828
	c-5.6201172,1.6513672-11.2363281,3.3037109-16.8544922,4.9550781
	c-10.1933594-7.9492188-16.2568359-16.4785156-30.7412109-20.8095703
	C575.640625,384.5253906,604.0185547,370.2138672,618.5800781,359.8691406z M615.6074219,324.1845703
	c9.5683594-9.3662109,23.4052734-11.9746094,31.7304688-22.7978516c15.2666016,1.6523438,27.6425781,6.28125,38.6679688,11.8925781
	C695.8671875,359.6953125,634.7324219,369.3017578,615.6074219,324.1845703z M686.0058594,292.4648438
	c-0.3320313,0.6582031-0.6582031,1.3203125-0.9951172,1.9785156c-58.5800781-9.6054688-40.3017578-30.2573242-28.7519531-71.3671875
	C687.5800781,227.1342773,693.6269531,259.2446289,686.0058594,292.4648438z M652.2919922,209.1992188
	c15.2412109,29.7739258-62.1982422,57.1489258-59.4921875,6.9379883c8.0625-10.4233398,21.4277344-14.6743164,30.7402344-23.7885742
	C635.0478516,194.2314453,647.9726563,199.9985352,652.2919922,209.1992188z M615.6074219,147.7421875
	c27.2744141,37.3173828-30.078125,65.043457-67.4248047,60.4658203
	c-13.3066406-42.3896484,37.2050781-45.5927734,59.4921875-60.4658203
	C610.3154297,147.7421875,612.9609375,147.7421875,615.6074219,147.7421875z M536.2832031,85.293457
	c27.8076172,7.6850586,35.7666016,34.6962891,60.4824219,43.6152344c2.3144531,2.6430664,4.6289063,5.2861328,6.9433594,7.9291992
	c-10.5732422,5.4331055-57.6572266,26.8374023-72.3857422,12.8876953
	C512.4316406,138.9267578,529.4160156,96.1518555,536.2832031,85.293457z M503.5595703,63.4873047
	c5.9501953,2.6430664,11.9042969,5.2871094,17.8486328,7.9301758c-1.609375,5.1748047-3.2382813,7.7963867-7.9326172,9.9125977
	c-3.7060547,2.5620117-6.9003906,0.5380859-11.8994141-0.9912109
	C502.2392578,74.7202148,502.9023438,69.1025391,503.5595703,63.4873047z M429.1962891,39.6958008
	c27.8173828,2.5263672,34.3154297,23.9438477,60.4814453,26.7636719
	c2.0859375,16.3427734-35.2714844,30.9985352-55.5263672,21.8085938
	C418.8837891,81.3383789,420.2636719,51.9223633,429.1962891,39.6958008z M387.5507813,46.6362305
	c0,0.6606445,0,1.3203125,0,1.980957c1.6513672-2.644043,3.3037109-5.2871094,4.9599609-7.9301758
	c0.6582031-0.328125,1.3154297-0.659668,1.9775391-0.9912109c2.8535156,3.6342773,2.5595703,3.2001953,1.9892578,8.9213867
	c0.9892578,0.6621094,1.9775391,1.3227539,2.9716797,1.9824219c2.4941406-4.1230469,3.6777344-7.2587891,8.9208984-8.9213867
	c0,0.331543,0,0.6606445,0,0.9921875c-1.8193359,4.137207-4.3398438,9.6816406-2.9707031,13.8759766
	c0.6621094,0.9912109,1.3193359,1.9833984,1.9824219,2.9746094c3.3037109-2.972168,6.6123047-5.9467773,9.9160156-8.9213867
	c-2.7607422,19.605957-8.4443359,70.3242188-29.7470703,68.3955078c-8.2695313-0.746582-12.7158203-9.6411133-17.8481445-13.8759766
	c-31.7456055-26.1875-0.1494141-44.590332,9.9155273-67.4042969
	C383.8730469,39.9892578,384.4697266,43.4169922,387.5507813,46.6362305z M301.2856445,17.8891602
	c18.1762695,0.6606445,36.3588867,1.3232422,54.534668,1.9833984c5.8847656,6.3027344,10.4018555,10.730957,11.8989258,21.8056641
	c-9.9833984,12.4804688-20.1323242,16.2568359-27.7631836,32.7104492
	C310.730957,82.3129883,294.5864258,45.609375,301.2856445,17.8891602z M260.6318359,42.6704102
	c8.9213867,1.3227539,17.8476563,2.6430664,26.7719727,3.9658203c2.5341797,17.0688477,7.9873047,29.1191406,18.8398438,37.6660156
	c-1.6542969,23.5146484-13.1733398,33.6474609-23.7973633,47.5800781
	C240.9008789,132.4204102,242.7348633,65.5898438,260.6318359,42.6704102z M228.9018555,33.7490234
	c4.2949219,1.3227539,8.5922852,2.6430664,12.890625,3.9658203c6.4921875,23.9521484-14.1347656,49.9150391-26.7724609,59.4746094
	c-26.9018555-0.9614258-38.0693359-24.0141602-45.6108398-44.6064453
	C189.2368164,46.3046875,209.0742188,40.0273438,228.9018555,33.7490234z M182.2998047,162.6103516
	c-29.5029297,4.3295898-41.265625-15.8188477-51.5610352-33.7016602C141.40625,107.9467773,149.3496094,85.5,148.5864258,52.5830078
	C168.828125,67.4672852,214.3388672,133.0048828,182.2998047,162.6103516z M134.7045898,57.5375977
	c0.6606445,0,1.3237305,0,1.9833984,0c2.6025391,13.2763672-0.5,28.0004883-2.9746094,38.659668
	c-10.9589844,47.2041016-43.3242188,34.6508789-82.2988281,23.7900391
	C66.0673828,84.4536133,107.3051758,80.1918945,134.7045898,57.5375977z M104.9580078,259.7524414
	c-43.6582031-15.8808594-86.7431641-38.6572266-86.2646484-98.1333008
	c6.2426758-8.4086914,14.3950195-11.5703125,22.8056641-17.8432617
	c80.5004883-0.9697266,126.9975586,37.5458984,125.9267578,117.9599609
	C153.7963867,275.1254883,118.8208008,264.7944336,104.9580078,259.7524414z M186.265625,238.9350586
	c-13.4501953-5.4414063-17.8476563-38.6430664-11.8984375-58.4829102c2.6430664-0.9912109,5.2885742-1.9824219,7.9326172-2.9746094
	c11.3251953,2.6845703,10.3686523,10.5708008,17.8476563,15.8623047
	c11.2358398,4.6240234,22.4770508,9.2504883,33.7124023,13.8769531c0.6606445,0.9912109,1.3203125,1.9824219,1.9833984,2.9746094
	C227.6689453,221.5,207.0800781,244.8876953,186.265625,238.9350586z M241.7924805,194.3320313
	c-15.5683594-1.1118164-22.6318359-9.6420898-34.7041016-13.8798828
	c-15.4628906-28.0048828-3.6953125-55.7250977,10.9072266-74.3413086
	c39.6533203,4.3515625,42.2880859,56.5888672,23.796875,86.237793
	C241.7924805,193.0087891,241.7924805,193.6689453,241.7924805,194.3320313z M253.6914063,209.1992188
	c-0.6630859-0.659668-1.3227539-1.3227539-1.9833984-1.9824219c-2.1542969-15.8461914,1.3227539-28.9350586,4.9580078-40.640625
	c3.5878906-1.6865234,4.0742188-1.5649414,8.9238281-0.9912109c3.3598633-5.0942383,6.2475586-8.7988281,6.9404297-16.8510742
	c15.3466797,10.6083984,40.5097656,32.421875,48.5864258,49.5615234c0.659668,0.659668,1.3227539,1.3227539,1.9829102,1.9833984
	C296.5014648,198.5996094,275.9833984,204.4863281,253.6914063,209.1992188z M323.0996094,175.4975586
	c-7.5332031-1.6137695-11.6508789-9.5810547-14.8735352-15.8618164
	c-15.5649414-30.3261719,1.2250977-48.5102539,17.8481445-69.3842773
	c20.9833984,5.9838867,30.121582,25.0219727,45.6113281,36.6738281c0,0.9912109,0,1.9833984,0,2.9746094
	c-7.2719727,6.6064453-14.5439453,13.2163086-21.8144531,19.8256836
	c-4.6279297,7.5986328-9.2543945,15.1987305-13.8808594,22.7973633
	C331.6918945,173.5141602,327.3945313,174.5063477,323.0996094,175.4975586z M410.3535156,225.0585938
	c-31.9140625-8.0185547-92.7788086-22.7866211-63.4560547-60.4658203
	c6.9785156-8.9697266,23.3916016-5.7016602,30.7373047-13.878418c5.6015625,4.6586914,3.8037109,10.4692383,7.9335938,16.8540039
	c4.2910156,2.9711914,8.5947266,5.9458008,12.8867188,8.9204102c1.3251953,7.2670898,2.6455078,14.5366211,3.9658203,21.8066406
	c2.9785156,3.3027344,5.9550781,6.6088867,8.9277344,9.9125977
	C413.6240234,213.4941406,411.3369141,219.9550781,410.3535156,225.0585938z M412.3359375,174.5063477
	c-9.0888672-7.4414063-16.1728516-21.034668-15.8583984-37.668457c5.6181641-8.2583008,11.2353516-16.5224609,16.8535156-24.7807617
	c6.2802734-2.6430664,12.5615234-5.2866211,18.8427734-7.9296875c4.6230469,0.331543,9.2470703,0.6601563,13.8759766,0.9916992
	c8.1279297,8.0981445,9.4863281,28.3530273,8.9257813,44.6064453
	C444.2246094,157.6821289,426.4902344,171.8383789,412.3359375,174.5063477z M436.1337891,233.9804688
	c-25.0517578-16.753418-10.5673828-58.5185547,19.8369141-59.4741211c1.6513672-3.3037109,3.3037109-6.6098633,4.9550781-9.9135742
	c27.6005859,12.0161133,19.0703125,34.2944336,11.8984375,62.4492188
	C463.4189453,233.246582,448.9882813,242.5751953,436.1337891,233.9804688z M456.9589844,253.8056641
	c8.8994141-13.9389648,21.7880859-12.7382813,36.6845703-20.8168945c4.6289063,0.6601563,9.2587891,1.3198242,13.8818359,1.9829102
	c6.9707031,13.862793,7.6875,37.7744141-0.9941406,51.5439453c-0.6572266,0.9951172-1.3144531,1.9833984-1.9775391,2.9726563
	C484.9892578,288.7607422,466.1953125,265.9462891,456.9589844,253.8056641z M529.3398438,356.8925781
	c-11.6054688-15.3007813-19.3369141-32.4365234-26.7744141-52.5332031
	c5.2919922-6.9384766,10.5839844-13.8828125,15.8642578-20.8183594c14.1269531,0.8046875,34.5341797,1.296875,43.6289063,7.9296875
	c0.9941406,0.6582031,1.9892578,1.3212891,2.9765625,1.9833984c-3.8408203,23.9931641-22.6337891,39.2548828-30.7402344,59.4716797
	C532.6435547,354.2519531,530.9912109,355.5722656,529.3398438,356.8925781z M545.2050781,421.3242188
	c-5.0429688-20.0488281-10.9804688-46.4755859,0-64.4316406c20.2441406,2.1289063,27.8222656,15.2666016,37.6787109,27.7519531
	c-3.2001953,23.4384766-14.3486328,28.8613281-32.7236328,36.6796875
	C548.5078125,421.3242188,546.8564453,421.3242188,545.2050781,421.3242188z M549.1708984,434.2119141
	c7.9326172-3.9667969,15.8642578-7.9326172,23.796875-11.8935547c22.8798828,1.4882813,38.1962891,11.7568359,48.5830078,25.7695313
	c-8.9853516,15.3916016-38.7753906,28.5400391-58.4980469,32.7128906
	C553.2724609,472.4501953,548.6054688,452.4394531,549.1708984,434.2119141z M720.7070313,498.6435547
	c-20.0097656,25.5029297-70.4257813,52.6201172-117.9921875,39.6503906
	c-17.1357422-4.6777344-30.7626953-14.4296875-45.6113281-21.8076172
	c13.1044922-32.0673828,49.5507813-30.2207031,78.3359375-46.5957031
	c43.0087891-0.0654297,61.7207031,9.6601563,85.2675781,26.7636719
	C720.7070313,497.3173828,720.7070313,497.9804688,720.7070313,498.6435547z"/>
</svg>
