<?xml version="1.0" encoding="utf-8"?>
<!-- Generator: Adobe Illustrator 16.0.0, SVG Export Plug-In . SVG Version: 6.00 Build 0)  -->
<!DOCTYPE svg PUBLIC "-//W3C//DTD SVG 1.1//EN" "http://www.w3.org/Graphics/SVG/1.1/DTD/svg11.dtd">
<svg version="1.1" id="Layer_1" xmlns="http://www.w3.org/2000/svg" xmlns:xlink="http://www.w3.org/1999/xlink" x="0px" y="0px"
	 width="247.6118164px" height="556.7412109px" viewBox="0 0 247.6118164 556.7412109"
	 style="enable-background:new 0 0 247.6118164 556.7412109;" xml:space="preserve">
<path style="fill-rule:evenodd;clip-rule:evenodd;" d="M177.605957,219.6293945
	c-11.0029297-43.9228516,22.8632813-66.0302734,14.4785156-108.9633789C182.300293,60.5488281,128.9487305,10.8017578,79.6796875,0
	C52.9204102,35.027832,16.5024414,61.0664063,3.8950195,110.6660156
	c-20.6708984,81.3105469,46.5522461,144.4936523,69.8266602,197.4970703
	c6.7236328,15.3046875,12.2060547,31.6162109,15.328125,50.2246094c3.3691406,20.1201172-9.3037109,38.7568359-5.1142578,55.3300781
	c25.8310547,47.0986328,51.6665039,94.2177734,77.4936523,141.3154297c0.8496094,0.5693359,1.703125,1.1386719,2.5566406,1.7080078
	c18.2636719-9.640625,31.234375-24.2539063,43.4257813-40.015625c12.7207031-16.4335938,26.8955078-32.4101563,34.0625-54.4814453
	C269.340332,376.4550781,194.2407227,286.0087891,177.605957,219.6293945z M214.2250977,360.0869141
	c-11.5400391,1.6513672-26.8115234,0.5605469-34.9111328-4.2470703c-1.6191406-1.1933594-0.5175781-0.0742188-1.7080078-1.7070313
	c-7.2089844-16.8066406,6.4482422-37.5986328,12.7753906-47.6679688
	C202.793457,315.4511719,218.8920898,337.6894531,214.2250977,360.0869141z M145.2514648,385.6289063
	c5.109375-7.3730469,10.2148438-14.7539063,15.328125-22.1269531c11.9169922,4.8154297,23.84375,9.6396484,35.7607422,14.4648438
	C185.7250977,399.1875,163.0942383,402.3613281,145.2514648,385.6289063z M217.6323242,437.5615234
	c-6.0898438,6.9892578-11.1289063,1.1289063-19.5849609,5.1044922c-2.8408203,2.8378906-5.6777344,5.6738281-8.5195313,8.5107422
	c-8.1708984-6.3740234-13.7421875-20.5400391-16.1767578-32.3447266c1.9863281-1.4179688,3.9746094-2.8369141,5.9628906-4.2558594
	C201.5473633,414.0732422,211.5844727,421.9208984,217.6323242,437.5615234z M130.7739258,347.3203125
	c-2.8378906-3.1162109-5.6748047-6.2431641-8.5166016-9.359375c1.1621094-14.8759766,7.2695313-24.5068359,12.7705078-34.9023438
	c13.6298828,1.9785156,27.2548828,3.9658203,40.8789063,5.953125c2.9316406,15.9121094-4.5722656,26.4755859-7.6650391,39.1669922
	C155.7553711,347.8896484,143.2592773,347.609375,130.7739258,347.3203125z M140.1381836,374.5605469
	c0,0.8496094,0,1.7080078,0,2.5566406c-12.9443359,6.6728516-25.9941406,15.3232422-44.2807617,16.1728516
	c0.284668-21.5566406,0.5732422-43.1328125,0.8540039-64.6982422
	C115.347168,340.3955078,123.1816406,361.5703125,140.1381836,374.5605469z M161.4291992,180.4726563
	c-9.4121094,16.9047852-43.6323242,10.034668-63.8691406,7.6591797c-0.2797852-2.8369141-0.5644531-5.6733398-0.8486328-8.5107422
	c6.4018555-9.112793,16.6386719-11.2963867,25.5458984-17.8779297c15.2304688-0.1235352,34.5898438,1.7680664,40.0214844,11.9169922
	C161.9975586,175.9301758,161.7133789,178.2021484,161.4291992,180.4726563z M170.7944336,236.65625
	c-7.6621094,1.418457-15.328125,2.8374023-22.9902344,4.2553711c-2.8369141-2.2705078-5.6787109-4.5400391-8.515625-6.8100586
	c-4.3164063-5.2490234-13.8857422-12.5888672-7.6660156-22.9848633
	c4.4609375-9.4414063,16.6621094-11.1660156,24.6972656-17.0234375c1.9873047,0,3.9755859,0,5.9589844,0
	C165.1196289,208.2792969,167.9604492,222.4692383,170.7944336,236.65625z M98.4140625,165.1494141
	c-8.7954102-3.9731445-17.6000977-7.9462891-26.3959961-11.9194336c-0.5693359-7.0922852-1.1386719-14.1870117-1.7026367-21.2817383
	c7.0922852-5.9589844,14.1943359-11.9194336,21.2866211-17.878418c10.6982422,5.6049805,17.7260742,29.6293945,23.84375,40.0117188
	C109.7666016,157.7700195,104.0932617,161.4609375,98.4140625,165.1494141z M117.9970703,204.3066406
	c0.5742188,1.703125,1.1386719,3.40625,1.7080078,5.1074219c3.8500977,13.328125-17.2548828,22.9287109-27.2490234,26.3911133
	c-9.9345703-5.1079102-19.8730469-10.2167969-29.8071289-15.3232422c-1.6235352-3.987793-0.331543-6.5097656,1.7036133-11.0678711
	c9.3691406-2.8374023,18.734375-5.6743164,28.1035156-8.5117188
	C102.9916992,200.9443359,109.8789063,202.8745117,117.9970703,204.3066406z M116.2993164,229.8461914
	c14.6376953,3.9682617,21.9726563,17.3041992,28.9521484,28.9433594
	c-2.8417969,6.5258789-5.6777344,13.0532227-8.5195313,19.5786133c-15.9438477-2.4521484-16.074707-18.0664063-38.3178711-7.6616211
	C99.0488281,249.9379883,107.550293,241.8125,116.2993164,229.8461914z M184.4233398,295.3964844
	c-8.6328125,4.8623047-27.6416016-1.6230469-39.171875-3.4052734c-5.9111328-21.6928711,5.6230469-28.8671875,16.1777344-42.5664063
	C173.3452148,258.0546875,185.5483398,276.8378906,184.4233398,295.3964844z M74.5703125,22.9848633
	c45.0834961,7.9160156,92.8081055,41.7490234,101.3364258,86.8300781
	c2.9316406,15.5170898-3.0224609,28.1616211-5.1123047,39.1601563c-17.6435547,10.315918-29.0839844-9.9023438-39.171875-17.878418
	C109.0664063,113.2607422,57.9643555,71.2988281,74.5703125,22.9848633z M59.2431641,50.2246094
	c1.418457,0.5678711,2.8364258,1.137207,4.2553711,1.7036133c4.3481445,7.3608398,0.8442383,17.0986328,3.4101563,28.0917969
	C69.652832,91.796875,78.019043,96.9277344,77.9770508,113.2211914
	c-14.8334961,15.0224609-35.1728516-2.3955078-46.8378906-8.5131836
	C30.9755859,72.8457031,46.121582,67.5410156,59.2431641,50.2246094z M20.9257813,112.3696289
	c11.8608398,5.8095703,30.0957031,17.0869141,35.7602539,28.9438477c3.4804688,8.6035156-4.5078125,15.9458008-7.6616211,21.28125
	c-9.6030273,2.6035156-19.065918,4.1411133-30.65625,3.40625C11.3969727,152.581543,17.7529297,125.5820313,20.9257813,112.3696289z
	 M19.2182617,183.0253906c18.2763672-4.6894531,32.0224609-11.4111328,40.8740234-25.5375977
	c6.5556641,2.4897461,7.2460938,10.9604492,12.7753906,14.472168c3.690918,1.1333008,7.3818359,2.2695313,11.0678711,3.4038086
	c0.5742188,0.284668,1.1386719,0.5688477,1.7075195,0.8510742c0.2797852,5.3916016,0.5644531,10.7832031,0.8491211,16.1748047
	c-13.0551758,3.1748047-21.8598633,7.859375-26.3999023,19.578125c-1.4179688,1.137207-2.8369141,2.2705078-4.2558594,3.4067383
	C46.5654297,204.6079102,22.7075195,198.3554688,19.2182617,183.0253906z M77.9770508,287.7353516
	c-12.2202148-9.3598633-32.6757813-47.8891602-37.4682617-64.6992188
	c24.3989258,3.5371094,52.4833984,15.6728516,46.8325195,45.1181641
	c-1.2597656,6.5673828-0.7739258,11.3574219-4.2543945,15.3251953
	C81.5463867,286.1582031,80.706543,286.3535156,77.9770508,287.7353516z M104.3774414,275.8154297
	c9.5561523,1.7807617,16.965332,6.4960938,23.8388672,11.0615234c2.6689453,11.5810547-1.9365234,17.4033203-4.2553711,27.2402344
	c-9.3837891,5.3935547-22.7099609,2.2578125-34.0625,0.8583984
	C77.5473633,295.2109375,94.4335938,287.34375,104.3774414,275.8154297z M176.7573242,529.5
	c-17.1533203-1.4726563-19.2617188-17.4785156-26.3964844-28.9462891
	c-19.1640625-30.796875-41.9990234-58.5039063-57.9047852-92.7900391
	c11.9213867-4.8242188,23.8432617-9.6484375,35.7602539-14.4736328
	c11.0253906,1.8378906,24.1787109,8.6318359,29.8066406,16.1728516
	c12.5234375,16.7880859,34.8925781,76.5966797,38.3173828,101.3085938C191.925293,519.75,186.4106445,525.65625,176.7573242,529.5z
	 M209.965332,494.5996094c-11.1005859-4.5458984-14.5205078-12.5615234-18.7304688-23.84375
	c7.8769531-12.4580078,19.4677734-13.8769531,31.5048828-22.1357422c3.2939453,0.6806641,3.4023438,0.5039063,5.1103516,2.5566406
	C237.3676758,465.0351563,217.4018555,487.8710938,209.965332,494.5996094z M222.7397461,416.2753906
	c-32.3251953-19.3173828-20.1289063-26.2509766-1.7021484-49.3759766
	c10.2695313,7.6142578,13.6669922,25.7753906,15.328125,41.7138672
	C233.2719727,412.0097656,228.003418,415.2109375,222.7397461,416.2753906z"/>
</svg>
