<?xml version="1.0" encoding="utf-8"?>
<!-- Generator: Adobe Illustrator 16.0.0, SVG Export Plug-In . SVG Version: 6.00 Build 0)  -->
<!DOCTYPE svg PUBLIC "-//W3C//DTD SVG 1.1//EN" "http://www.w3.org/Graphics/SVG/1.1/DTD/svg11.dtd">
<svg version="1.1" id="Layer_1" xmlns="http://www.w3.org/2000/svg" xmlns:xlink="http://www.w3.org/1999/xlink" x="0px" y="0px"
	 width="957.3505859px" height="432.8725586px" viewBox="0 0 957.3505859 432.8725586"
	 style="enable-background:new 0 0 957.3505859 432.8725586;" xml:space="preserve">
<path style="fill-rule:evenodd;clip-rule:evenodd;" d="M926.3886719,373.8071289
	c-1.5478516,2.8330078-3.0966797,5.6669922-4.6445313,8.5078125c5.3017578,3.1474609,10.5273438,5.7177734,13.9326172,10.8330078
	c-59.1328125-16.0058594-119.1816406-44.4072266-197.3798828-32.4970703
	c3.3251953-6.4804688,18.2470703-7.5673828,25.5419922-10.0605469c25.5244141-8.7119141,58.7294922-8.203125,87.4648438-2.3242188
	c13.2929688,2.7226563,38.9179688,8.9228516,52.6386719,2.3242188c1.4677734-1.0859375,0.46875-0.0595703,1.5488281-1.5527344
	c11.0136719-27.5429688-57.4482422-63.4248047-73.5361328-73.5068359
	c-35.0546875-21.9658203-68.6044922-40.2802734-118.4277344-48.75c-37.3242188-6.34375-68.1582031,13.4824219-94.4335938,21.6689453
	c-45.7636719,14.2509766-122.5205078,19.7558594-171.8388672,4.6396484
	c-47.1000977-14.4365234-92.5546875-39.0498047-119.203125-74.284668
	c-20.8969727-27.6303711-36.6831055-59.2944336-58.0522461-85.8920898
	c-45.105957-56.1323242-120.5981445-94.597168-222.925293-92.855957C29.3413086,9.862793,16.9223633-2.1342773,5.2753906,17.0795898
	C-3.9833984,32.3588867,0.690918,59.6459961,6.0473633,75.1157227
	c14.0981445,40.6918945,37.1542969,80.8876953,71.9887695,99.8203125
	c13.6738281,1.5483398,27.3486328,3.0942383,41.0268555,4.6425781
	c19.8447266,6.6464844,35.2495117,20.6660156,50.3110352,32.4990234
	c31.9501953,25.1064453,48.3549805,60.8662109,71.9848633,94.4023438
	c17.8681641,25.3632813,40.6064453,50.828125,65.7958984,68.8710938
	c93.7294922,67.1230469,237.2827148,44.9404297,382.3754883,44.8818359
	c46.1240234-0.0175781,119.5878906,22.9892578,157.90625,6.9648438c1.0039063-4.8789063,1.8398438-13.4199219-1.5488281-16.2529297
	c-8.0205078-6.7011719-25.1728516-5.2763672-35.6064453-9.2880859
	c-21.8134766-8.3818359-41.8798828-25.5332031-65.7919922-29.4013672c-0.2587891-0.2548828-0.5175781-0.5166016-0.7753906-0.7724609
	c0-0.2636719,0-0.5175781,0-0.7724609c53.1259766-17.2275391,142.8779297,20.5292969,184.2226563,30.9462891
	c0.2587891,0.5166016,0.5175781,1.0341797,0.7714844,1.5507813c-9.0429688,5.5830078-17.5458984,11.0878906-22.4443359,20.8935547
	c0,1.0263672,0,2.0625,0,3.0966797c0.2587891,0,0.5166016,0,0.7705078,0
	c13.0976563-9.4248047,23.2949219-16.8388672,47.2197266-16.2529297c1.03125-3.0966797,2.0625-6.1914063,3.0966797-9.2880859
	C949.4990234,390.8500977,938.5996094,380.1958008,926.3886719,373.8071289z M495.2460938,278.6225586
	c11.9941406,8.8691406,15.6123047,52.2109375,0,60.3632813
	C468.6865234,319.6030273,479.4892578,298.5444336,495.2460938,278.6225586z M501.4384766,354.4575195
	c0.7753906,1.0361328,1.5488281,2.0625,2.3193359,3.0966797c-1.2890625,1.2900391-2.578125,2.5800781-3.8671875,3.8681641
	c-5.7773438-0.9589844-8.8134766-3.1210938-11.6083984-6.9648438c0.5126953-2.3154297,1.0302734-4.6396484,1.5429688-6.9638672
	C493.6982422,349.8178711,497.5664063,352.1420898,501.4384766,354.4575195z M470.4765625,374.5795898
	c-0.7763672,0-1.5483398,0-2.3198242,0c-21.5678711-14.4707031-23.7983398-28.1123047-10.0649414-50.3037109
	C492.6376953,333.2094727,487.3740234,353.4487305,470.4765625,374.5795898z M432.5458984,271.6586914
	c16.1508789,1.1875,33.9355469,5.4882813,45.6708984,12.3847656c3.0283203,3.7705078-7.8676758,21.1044922-9.2885742,27.8574219
	c-18.4458008,4.8173828-27.1362305-18.9335938-36.3823242-27.0859375
	C432.5458984,280.4291992,432.5458984,276.0444336,432.5458984,271.6586914z M444.1591797,329.6967773
	c-3.6137695,4.9716797-7.703125,8.3720703-13.9335938,10.8330078c-19.7182617-1.3320313-19.378418-27.0175781-18.5766602-48.75
	c2.0654297-1.5449219,4.1269531-3.0966797,6.1923828-4.640625
	C433.4453125,292.0805664,444.6000977,308.5541992,444.1591797,329.6967773z M383.7827148,246.1254883
	c12.8984375,6.1923828,25.8007813,12.3847656,38.703125,18.5683594
	c-1.7729492,17.9492188-15.7270508,19.3408203-16.2539063,38.6943359c-0.262207,0-0.5170898,0-0.7753906,0
	C391.0185547,292.8227539,378.1162109,273.8725586,383.7827148,246.1254883z M373.71875,314.2202148
	c-6.3964844,3.7705078-15.8505859,4.6523438-23.9936523,6.9599609c-1.03125,0-2.0654297,0-3.0966797,0
	c1.3364258-8.5292969-0.7714844-11.375-4.644043-16.2441406c3.847168-10.0771484,7.2060547-25.5029297,17.0292969-29.4052734
	c5.4926758-2.1845703,10.8662109-0.5595703,14.7050781-3.8720703
	C387.0444336,279.284668,376.0302734,303.612793,373.71875,314.2202148z M290.8974609,311.9008789
	c-0.2587891,0-0.5170898,0-0.7719727,0c3.0961914-10.3154297,6.1928711-20.6396484,9.284668-30.9541016
	c18.4790039-0.3056641,36.9584961-0.2460938,44.8984375,10.0605469
	C332.296875,315.9975586,317.7963867,304.2827148,290.8974609,311.9008789z M373.71875,263.1508789
	c-7.1337891,7.5917969-19.6293945,3.5537109-24.7700195,13.9287109c-3.5415039,1.3056641-9.190918-1.0947266-13.1567383-3.8691406
	c-0.7719727-0.2578125-1.5478516-0.5166016-2.3242188-0.7763672c3.3510742-8.8857422,5.5136719-26.2910156,13.9326172-30.1767578
	c6.9692383-2.0615234,13.9375-4.1269531,20.9013672-6.1923828
	C374.9609375,237.7915039,377.7856445,256.1606445,373.71875,263.1508789z M335.7919922,205.1137695
	c12.2236328,6.0200195,17.4321289,14.2841797,26.3173828,23.2148438c-3.565918,3.2490234-12.2280273,5.4072266-17.8007813,6.1923828
	c-3.8725586-2.5791016-7.7451172-5.1621094-11.612793-7.7402344
	C330.4355469,221.7055664,334.2607422,211.7939453,335.7919922,205.1137695z M336.5634766,242.2573242
	c2.7241211,10.6542969-4.2402344,17.6357422-6.1875,26.3095703c-14.4848633,8.6054688-29.4477539-0.8955078-42.5751953-3.8730469
	c-0.0585938-17.0712891,16.1132813-19.5859375,26.3183594-28.6289063
	C321.6005859,238.1303711,329.0820313,240.1958008,336.5634766,242.2573242z M300.1855469,236.8413086
	c-0.2583008,0-0.5170898,0-0.7753906,0c-5.0268555-18.1113281-6.2055664-34.0239258,2.3237305-49.5239258
	c10.3364258,1.1787109,18.34375,4.9956055,25.5458984,9.2856445
	C325.4985352,217.621582,316.6635742,230.3051758,300.1855469,236.8413086z M280.8325195,130.8286133
	c12.8808594,8.2177734,18.9970703,26.5888672,24.769043,41.7856445
	c-15.9941406-2.3198242-31.9921875-4.6425781-47.9902344-6.9643555
	C262.2641602,151.659668,272.8632813,141.690918,280.8325195,130.8286133z M258.387207,109.1630859
	c2.9267578,11.3544922,7.1088867,21.2958984,6.9692383,35.5942383c-6.1928711,6.9643555-12.3901367,13.9301758-18.581543,20.8925781
	c-7.2231445-0.2568359-14.4467773-0.5151367-21.6699219-0.7739258c-2.0654297-3.3530273-4.1269531-6.7055664-6.1923828-10.0585938
	c4.746582-8.3896484,9.6152344-13.9985352,9.2885742-27.8574219c13.0463867-1.2910156,22.1142578-9.1484375,27.090332-18.5703125
	C256.3217773,108.6459961,257.3569336,108.9042969,258.387207,109.1630859z M218.9125977,68.925293
	c16.2021484,7.9677734,21.5380859,20.6176758,33.2822266,32.5c-0.2548828,0.7734375-0.5175781,1.5473633-0.7719727,2.3203125
	c-6.9555664,18.8925781-26.4746094,9.7182617-41.0268555,6.1914063
	C209.4291992,94.4609375,215.4985352,82.1015625,218.9125977,68.925293z M214.2685547,122.3183594
	c2.8374023,4.6416016,5.675293,9.2841797,8.5166016,13.9287109c-2.3242188,5.1572266-4.6484375,10.3168945-6.9682617,15.4746094
	c-9.6025391,5.6083984-26.9921875,5.0043945-42.5751953,4.644043c-1.5776367-7.609375-1.1787109-16.2338867-0.7719727-24.7631836
	c8.8095703-5.2788086,23.1323242-5.5092773,32.5102539-10.8325195
	C208.0761719,121.2856445,211.1728516,121.8027344,214.2685547,122.3183594z M178.6625977,116.1274414
	c-1.8071289,0-3.6137695,0-5.4208984,0c-4.847168-8.4951172-8.5761719-21.3100586-8.5117188-34.0473633
	c7.2226563-5.1591797,14.449707-10.3188477,21.6723633-15.4760742c4.1269531,0.7739258,8.2543945,1.5473633,12.3852539,2.3212891
	C211.8041992,88.1113281,193.2993164,109.5087891,178.6625977,116.1274414z M121.3828125,25.5922852
	c2.2646484,8.4165039,2.1464844,20.0439453,4.6445313,30.1787109c0,4.6425781,0,9.284668,0,13.9287109
	c-13.4624023-1.5522461-20.8422852-2.0356445-30.9619141,3.0942383
	c-16.2578125-26.0351563-7.6728516-25.0947266,3.0966797-51.0703125
	C105.9018555,23.0131836,113.6420898,24.3022461,121.3828125,25.5922852z M141.5078125,77.4355469
	c4.8989258,2.0639648,9.8017578,4.1274414,14.7055664,6.190918c19.0732422,36.362793-7.7495117,38.2294922-21.6738281,54.9404297
	c-1.0307617,0-2.0654297,0-3.0966797,0c-3.0957031-10.3154297-6.1914063-20.6342773-9.2880859-30.9511719
	C128.605957,97.5571289,135.0571289,87.4941406,141.5078125,77.4355469z M115.9667969,103.7456055
	c-1.293457,2.0629883-2.5834961,4.128418-3.8720703,6.1914063c-3.0966797,2.8359375-6.1928711,5.6757813-9.2895508,8.5102539
	c-4.9111328-8.1152344-6.2548828-22.7290039-6.1914063-35.5932617c2.3237305-1.5483398,4.644043-3.0957031,6.9643555-4.644043
	c2.5825195,0,5.1611328,0,7.7446289,0C113.5327148,86.1777344,116.0898438,93.3198242,115.9667969,103.7456055z
	 M80.355957,48.0327148c-0.5131836,0.2568359-1.0302734,0.515625-1.5483398,0.7739258
	c-8.4394531-11.0268555-20.9643555-18.3647461-27.8608398-30.953125
	C93.0756836,16.6660156,91.1118164,16.0996094,80.355957,48.0327148z M81.1328125,156.3657227
	c-27.199707-21.5400391-85.421875-78.2978516-69.6645508-131.5478516c1.8066406-1.2895508,3.6137695-2.5786133,5.4204102-3.8686523
	c18.1953125,0.5068359,28.2089844,9.6264648,38.7021484,17.7973633
	c31.7041016,24.6948242,49.4418945,64.5214844,29.4135742,114.5224609
	C83.7114258,154.3017578,82.4213867,155.3330078,81.1328125,156.3657227z M120.6113281,157.9116211
	c-8.0415039,2.2138672-20.7788086-1.1606445-26.3217773-4.6425781c-0.7724609-0.2563477-1.5444336-0.5146484-2.3208008-0.7734375
	c2.8251953-18.7636719,13.2084961-19.8139648,25.5419922-28.6313477
	C127.7363281,129.1357422,122.7236328,148.0126953,120.6113281,157.9116211z M161.6333008,177.2563477
	c-15.2480469,4.0117188-23.9462891-9.3505859-34.8295898-13.1542969c-0.5180664-2.5791016-1.0351563-5.1577148-1.5522461-7.7363281
	c8.5966797-9.7763672,19.5561523-12.2241211,30.1889648-20.1186523c1.5483398,0,3.0966797,0,4.6450195,0
	C164.0087891,147.3842773,163.1904297,164.3730469,161.6333008,177.2563477z M131.4428711,56.5454102
	c-0.5170898-7.9970703-1.0302734-15.9941406-1.543457-23.9892578c2.3203125-1.8051758,4.6401367-3.6113281,6.9643555-5.4165039
	c19.730957,1.9472656,41.7773438,13.0439453,48.7675781,27.8574219c0.5126953,0.5151367,1.0263672,1.0307617,1.5439453,1.5483398
	C167.8725586,71.3647461,152.0395508,66.987793,131.4428711,56.5454102z M193.3666992,210.5317383
	c-17.1679688-1.1723633-21.1171875-15.4023438-28.6367188-26.3110352c2.0615234-4.6420898,4.1269531-9.284668,6.1923828-13.9287109
	c11.8671875,0.7739258,23.734375,1.5483398,35.605957,2.3222656c1.7602539,15.6611328-8.940918,20.965332-10.0649414,36.3691406
	C195.4331055,209.4990234,194.3979492,210.0146484,193.3666992,210.5317383z M242.1342773,270.1147461
	c-0.5170898,0.2539063-1.0307617,0.5175781-1.5483398,0.7714844
	c-10.2675781-13.6230469-23.5136719-23.2167969-33.2856445-37.9179688
	c6.6459961-4.5722656,16.4311523-5.7597656,23.9975586-10.0556641c3.8676758,1.0302734,7.7397461,2.0654297,11.6083984,3.0917969
	C246.171875,240.2631836,242.9746094,254.9174805,242.1342773,270.1147461z M201.8842773,216.722168
	c-3.8305664-26.4472656,11.6044922-28.434082,23.9975586-40.237793c5.9291992,1.0302734,11.8671875,2.0629883,17.8007813,3.0942383
	C252.0932617,208.1254883,226.3481445,217.6000977,201.8842773,216.722168z M249.0986328,188.8647461
	c8.7714844-3.3530273,17.5463867-6.7070313,26.3178711-10.0600586c2.3198242,0,4.644043,0,6.9643555,0
	c12.7705078,28.9536133,3.4272461,48.0141602-31.7338867,41.7856445
	C245.1201172,211.5581055,246.3208008,200.4819336,249.0986328,188.8647461z M263.8081055,233.7446289
	c8.5126953,0.5136719,17.0283203,1.0302734,25.5410156,1.5488281c5.1064453,24.0097656-20.7612305,31.1572266-40.2504883,27.0849609
	C250.1337891,247.2749023,257.046875,242.503418,263.8081055,233.7446289z M252.9663086,282.4956055
	c5.1621094-3.3554688,10.324707-6.7060547,15.4819336-10.0615234c11.3745117,0.7167969,16.2734375,5.7519531,25.5449219,7.7412109
	c2.6938477,12.3417969-7.1586914,22.4072266-10.0649414,32.4970703c-0.512207,0.2587891-1.0263672,0.5175781-1.5473633,0.7714844
	c-10.5185547-4.5205078-17.8012695-12.6132813-27.8613281-16.2441406
	C252.8989258,293.8491211,252.7631836,288.0043945,252.9663086,282.4956055z M258.387207,312.6723633
	c18.5512695,7.5839844,15.4682617,11.671875,39.4785156,7.7363281c-2.8413086,2.3242188-5.6787109,4.6484375-8.5166016,6.9638672
	c-2.6586914,10.2988281,1.1494141,15.4472656,4.644043,23.2177734
	C280.9174805,344.8647461,262.9003906,326.9145508,258.387207,312.6723633z M294.7651367,332.793457
	c8.5-7.8125,33.324707-17.2880859,46.4472656-16.2529297c-0.0292969,21.1308594-8.9282227,31.9716797-16.2563477,45.6542969
	C308.7871094,359.7006836,299.8588867,346.5180664,294.7651367,332.793457z M357.465332,377.6743164
	c-3.8725586,0.7216797-7.8969727-3.5449219-10.8369141-6.1914063c-19.7094727-17.7626953-5.699707-25.0917969,6.1928711-38.6894531
	C365.5073242,337.152832,376.2124023,372.4077148,357.465332,377.6743164z M398.4882813,389.2788086
	c-8.7294922,11.4189453-27.2983398,2.859375-32.5063477-5.4111328c27.1196289-19.7978516,6.3916016-28.7568359,3.0966797-54.9423828
	c5.9291992-6.4472656,11.8671875-12.9023438,17.8007813-19.3496094
	c31.2802734,0.7128906,19.4042969,37.2138672,15.480957,58.0400391
	C400.8969727,375.3852539,402.4150391,384.1469727,398.4882813,389.2788086z M405.456543,386.9555664
	c2.8369141-13.9287109,5.6791992-27.8574219,8.5126953-41.7861328c5.6831055,2.9951172,11.2182617,5.6074219,18.5766602,3.0966797
	c9.8442383,7.2861328,8.7543945,23.0136719,13.9331055,34.8212891
	c-5.9335938,6.7109375-11.8676758,13.4111328-17.8007813,20.1201172
	C417.4296875,401.027832,412.9848633,392.7661133,405.456543,386.9555664z M475.1210938,407.0766602
	c-12.309082,2.0185547-29.668457,3.3330078-35.6064453-5.4199219c5.2211914-7.4560547,13.0888672-11.6132813,18.5771484-18.5693359
	c9.7509766,3.1806641,13.5595703,13.8271484,17.0292969,23.2167969
	C475.1210938,406.5600586,475.1210938,406.8217773,475.1210938,407.0766602z M475.1210938,379.9907227
	c3.3544922-4.3769531,6.7050781-8.7714844,10.0595703-13.1484375c10.3242188,8.7636719,20.6474609,17.5351563,30.9667969,26.3056641
	C496.0810547,418.5454102,484.8085938,407.840332,475.1210938,379.9907227z M830.40625,418.6811523
	c-6.4501953,0-12.9023438,0-19.3525391,0c-35.9501953-5.4707031-68.21875-5.6503906-100.6220703-10.8330078
	c-37.8251953-6.0390625-80.1748047,3.2666016-113.0107422,8.5175781
	c-28.7529297,4.5888672-58.3066406-2.2910156-87.4697266-2.3242188c0.5175781-3.0966797,1.0341797-6.1933594,1.5517578-9.2880859
	c6.1884766-1.0263672,12.3808594-2.0625,18.5771484-3.0966797c1.5439453-3.6064453,3.0957031-7.2197266,4.640625-10.8242188
	c-10.0615234-6.7109375-20.1259766-13.4199219-30.1865234-20.1220703
	c-1.4833984-5.0976563,5.4970703-9.8056641,6.1923828-18.5771484c0-0.2539063,0-0.5078125,0-0.7714844
	c-2.8369141-2.8330078-5.6787109-5.6748047-8.5126953-8.5078125c1.2900391-3.6142578,2.5791016-7.2265625,3.8691406-10.8330078
	c9.9072266-25.2441406,1.1279297-34.9736328-2.3251953-59.5869141c64.2783203-0.15625,111.3701172-12.5068359,157.90625-27.0810547
	c11.3505859-2.3232422,22.7080078-4.6435547,34.0585938-6.9638672
	c70.3300781-0.2333984,109.8935547,32.4462891,153.2607422,59.5830078
	c18.4160156,11.5185547,42.1044922,22.5976563,51.0869141,43.3291016
	c-68.2548828-0.2119141-127.2910156-20.2402344-175.7099609,15.4804688
	c-0.2548828,4.3789063-0.5136719,8.7714844-0.7724609,13.1494141
	C754.3339844,390.5004883,788.5654297,408.6030273,830.40625,418.6811523z"/>
<path style="fill-rule:evenodd;clip-rule:evenodd;" d="M694.1738281,258.5053711
	c30.1181641-0.5332031,60.6689453,14.9003906,73.5332031,32.5019531c-0.7724609,2.8339844-1.5478516,5.6748047-2.3203125,8.5087891
	c-1.03125,0-2.0664063,0-3.0966797,0c-13.4912109-18.0302734-53.7412109-38.9619141-86.6923828-28.6298828
	c-12.8984375,5.9345703-25.8046875,11.8671875-38.703125,17.796875
	C640.7119141,263.7524414,675.7666016,269.215332,694.1738281,258.5053711z"/>
<path style="fill-rule:evenodd;clip-rule:evenodd;" d="M691.8496094,283.2709961
	c20.5410156-0.5302734,28.9179688,5.4208984,40.2509766,13.1523438c0.2070313,28.5410156-25.859375,37.3964844-51.859375,30.1777344
	c0.7714844-2.8330078,1.5478516-5.6748047,2.3242188-8.5087891c14.7851563-0.8564453,35.5263672,3.2236328,41.0224609-8.5166016
	c1.0439453-1.9335938,1.3486328-2.7226563,0.7724609-4.6396484c-4.2197266-12.5800781-32.0566406-10.2558594-46.4433594-8.5126953
	c1.2763672-3.6083984,2.3330078-8.1005859,5.4199219-10.0605469
	C686.1796875,285.3325195,689.0126953,284.2973633,691.8496094,283.2709961z"/>
</svg>
