<?xml version="1.0" encoding="utf-8"?>
<!-- Generator: Adobe Illustrator 16.0.0, SVG Export Plug-In . SVG Version: 6.00 Build 0)  -->
<!DOCTYPE svg PUBLIC "-//W3C//DTD SVG 1.1//EN" "http://www.w3.org/Graphics/SVG/1.1/DTD/svg11.dtd">
<svg version="1.1" id="Layer_1" xmlns="http://www.w3.org/2000/svg" xmlns:xlink="http://www.w3.org/1999/xlink" x="0px" y="0px"
	 width="247.5986328px" height="790.6508789px" viewBox="0 0 247.5986328 790.6508789"
	 style="enable-background:new 0 0 247.5986328 790.6508789;" xml:space="preserve">
<path style="fill-rule:evenodd;clip-rule:evenodd;" d="M242.7041016,362.9926758
	c-4.1181641-26.8110352-4.6220703-49.3442383-11.5595703-72.2138672
	c-29.4482422-97.1513672-98.6464844-145.3686523-162.769043-207.0112305C45.0449219,61.3334961,39.2744141,19.7373047,13.4785156,0
	c-0.9638672,0-1.9282227,0-2.8891602,0C4.9301758,15.0166016,8.0200195,33.9379883,11.550293,49.1020508
	c12.6264648,54.1899414,31.043457,77.0234375,67.4194336,105.9150391
	c32.6542969,25.9331055,66.5126953,61.2753906,79.9443359,105.9121094
	c3.5302734,22.7822266,7.0654297,45.5791016,10.5898438,68.3583984
	c4.1240234,20.4335938,11.5351563,48.8022461,7.7050781,74.1376953
	C158.6005859,526.5375977,98.5419922,573.0551758,47.1889648,659.5454102
	C32.1494141,684.8686523-6.5405273,748.4487305,0.953125,787.6108398
	c19.3994141,9.8701172,118.140625-7.3359375,147.3642578-8.6689453
	c15.8691406-98.4472656,70.8691406-163.7626953,90.53125-259.0107422c2.2460938-22.7832031,4.5-45.5722656,6.7480469-68.3613281
	C249.9111328,423.6743164,246.4570313,387.4355469,242.7041016,362.9926758z M234.0351563,325.4379883
	c1.9277344,13.4814453,3.8554688,26.9648438,5.7832031,40.4404297
	c-9.7412109-7.7373047-29.3632813-38.0981445-49.1220703-26.9589844
	c-7.2890625,3.3452148-9.4980469,11.8481445-9.6367188,22.1450195c-0.6396484,0.3193359-1.2783203,0.6455078-1.9160156,0.9633789
	c-1.15625-24.8500977-2.5986328-43.3173828,8.6630859-58.7333984
	C205.6347656,304.6918945,223.8857422,315.4482422,234.0351563,325.4379883z M175.2871094,307.1464844
	c0,0.6411133,0,1.2861328,0,1.9248047c-0.3251953,0-0.6445313,0-0.9628906,0
	c-10.8212891-50.2192383-20.8623047-86.5893555-47.2001953-119.390625
	C84.0029297,135.953125,10.9628906,114.4785156,12.5146484,15.4038086
	c22.9677734,15.0268555,24.2983398,49.46875,42.3764648,69.324707
	c56.8618164,62.453125,159.9936523,118.6113281,174.3305664,221.4536133
	C203.5664063,292.199707,196.0214844,276.8789063,175.2871094,307.1464844z M166.6191406,514.1606445
	c2.5654297,0,5.1318359,0,7.7050781,0c3.8427734,6.1611328,6.9121094,12.7724609,8.6689453,21.1806641
	c-8.6367188,11.1386719-18.2197266,18.1865234-24.0791016,32.7333984c-10.9160156-1.6015625-21.8378906-3.2099609-32.7480469-4.8125
	C133.7363281,541.8774414,151.0371094,527.8149414,166.6191406,514.1606445z M110.7558594,581.550293
	c10.8847656,8.3955078,18.2773438,27.4560547,18.3027344,46.2246094
	c-22.7641602,15.0703125-37.0439453,11.5595703-64.534668,21.1875c-0.3188477,0-0.6416016,0-0.9643555,0
	C72.4995117,620.3754883,95.3696289,603.9633789,110.7558594,581.550293z M89.5668945,654.7319336
	c14.5439453,0.7919922,21.6679688,6.4472656,31.7807617,10.5830078c2.890625,3.2236328,5.7763672,6.4296875,8.6669922,9.640625
	c-18.7475586,4.4414063-25.6728516,13.6660156-39.4838867,20.2089844c-1.2871094,1.2890625-2.5698242,2.5791016-3.8530273,3.8564453
	c-6.8232422-10.2587891-15.2080078-24.7490234-28.8979492-27.9150391c-0.6411133-0.9648438-1.2836914-1.9345703-1.9213867-2.8994141
	C67.0927734,663.7260742,78.331543,659.2250977,89.5668945,654.7319336z M45.2583008,677.8334961
	c17.8740234,8.71875,30.1948242,22.2724609,40.4555664,38.5185547c-12.840332,3.5351563-25.6870117,7.0605469-38.5249023,10.5966797
	c-10.9155273,7.0537109-21.8339844,14.1269531-32.746582,21.1728516
	C20.0585938,723.0092773,34.3740234,698.9448242,45.2583008,677.8334961z M142.5332031,763.5336914
	c-7.0400391,6.6699219-28.0356445,2.9990234-39.4814453,4.8115234c-32.1025391,2.5800781-64.215332,5.1386719-96.3144531,7.7060547
	C14.7993164,746.878418,52.46875,745.7612305,76.081543,731.762207
	c31.8154297,0.2236328,49.0375977,11.9306641,68.3862305,24.0654297
	C143.8232422,758.4077148,143.1787109,760.9663086,142.5332031,763.5336914z M148.3173828,741.3881836
	c-21.2763672-4.2763672-33.5649414-18.2900391-54.8984375-23.1015625c-0.6416016-2.5673828-1.2827148-5.1455078-1.9272461-7.7060547
	c7.8032227-10.4814453,20.2290039-12.5,30.8183594-20.2304688c18.3344727-0.0673828,29.1733398,4.1630859,39.4946289,11.5625
	C157.3046875,715.0639648,152.8173828,728.237793,148.3173828,741.3881836z M168.5400391,688.4370117
	c-0.6376953,0.3125-1.2832031,0.6376953-1.9208984,0.9580078c-11.2998047-8.9316406-35.2763672-33.6416016-46.2290039-37.5439453
	c-0.3261719-0.6425781-0.6464844-1.2880859-0.9648438-1.9306641c6.9575195-8.3642578,18.9584961-9.9658203,27.9272461-16.3759766
	c17.1542969-0.1523438,30.8203125,4.1484375,38.5244141,13.4833984
	C180.1015625,660.8344727,174.3242188,674.637207,168.5400391,688.4370117z M192.6240234,633.5444336
	c-16.5576172-1.4423828-32.8681641-16.7695313-57.7949219-8.6621094
	c-7.0478516-15.2167969-9.1865234-33.0673828-14.4389648-47.1796875
	c47.6010742-0.1474609,50.4350586,24.0722656,75.1206055,44.3007813
	C194.5537109,625.840332,193.5820313,629.6958008,192.6240234,633.5444336z M201.2871094,612.3647461
	c-0.6376953,0.3261719-1.2822266,0.6455078-1.9208984,0.9580078c-6.8115234-14.0703125-16.6044922-32.9394531-31.7832031-38.5058594
	c-0.6455078-0.9580078-1.2890625-1.9277344-1.9345703-2.8916016c9.6386719-15.4619141,21.3662109-20.1142578,35.6386719-30.8076172
	c8.2871094-0.0117188,15.6904297,0.8935547,21.1933594,3.8496094
	C231.4423828,555.034668,204.359375,601.5581055,201.2871094,612.3647461z M229.2216797,533.4125977
	c-12.9394531-5.1054688-26.9316406-4.078125-41.4150391-1.9208984c-0.53125-16.7753906-5.34375-23.2353516-13.4824219-31.7773438
	c5.859375-14.8349609,13.1425781-21.0917969,22.1503906-31.7773438c23.0888672,1.7304688,25.96875,19.1191406,39.4882813,29.8496094
	C233.7216797,509.659668,231.4746094,521.5395508,229.2216797,533.4125977z M237.890625,484.3110352
	c-12.5-9.6191406-18.3457031-22.3486328-33.7119141-29.8496094c-33.4042969,2.9423828-25.5205078,41.1552734-42.3740234,47.1806641
	c8.7529297-36.2841797,19.0869141-64.5048828,37.5615234-89.5478516
	C235.4638672,414.8071289,241.0429688,447.746582,237.890625,484.3110352z M240.7832031,430.3901367
	c-0.3251953,0-0.6464844,0-0.9648438,0c-11.9423828-10.1308594-18.1611328-23.8818359-32.7470703-31.7724609
	c-15.9912109,1.1435547-18.1416016,10.5595703-26.9697266,18.2900391
	c-0.1474609-25.6943359,0.5673828-50.0981445,10.5947266-65.4692383
	C233.4804688,351.4770508,241.9179688,386.4707031,240.7832031,430.3901367z"/>
</svg>
